<svg width="100" height="100" viewBox="0 0 100 100" fill="none" xmlns="http://www.w3.org/2000/svg">
<g id="Layer_1" clip-path="url(#clip0_3_123)">
<g id="Group">
<g id="Group_2">
<path id="Vector" d="M47.72 98.3456C74.0676 98.3456 95.4265 76.3332 95.4265 49.1795C95.4265 22.0258 74.0676 0.0134277 47.72 0.0134277C21.3724 0.0134277 0.0134277 22.0258 0.0134277 49.1795C0.0134277 76.3332 21.3724 98.3456 47.72 98.3456Z" fill="#37DBFF"/>
<g id="Clip path group">
<mask id="mask0_3_123" style="mask-type:luminance" maskUnits="userSpaceOnUse" x="0" y="0" width="96" height="99">
<g id="clippath">
<path id="Vector_2" d="M47.72 98.3456C74.0676 98.3456 95.4265 76.3332 95.4265 49.1795C95.4265 22.0258 74.0676 0.0134277 47.72 0.0134277C21.3724 0.0134277 0.0134277 22.0258 0.0134277 49.1795C0.0134277 76.3332 21.3724 98.3456 47.72 98.3456Z" fill="white"/>
</g>
</mask>
<g mask="url(#mask0_3_123)">
<g id="Group_3">
<path id="Vector_3" d="M-10.505 44.3243H11.1553C11.8746 44.3243 12.2554 43.4142 11.758 42.867C11.3288 42.3949 10.6572 42.1916 9.85861 42.3962C9.62761 40.5365 8.2302 39.1077 6.54005 39.1077C5.80999 39.1077 5.13289 39.3756 4.58153 39.8307C4.13122 37.2457 2.13663 35.2969 -0.255955 35.2969C-2.64854 35.2969 -4.64735 37.249 -5.09539 39.838C-5.817 39.2842 -6.68644 38.9617 -7.62119 38.9617C-9.63852 38.9617 -11.3478 39.9967 -11.9398 42.3587C-12.1887 43.3512 -11.4807 44.3243 -10.5054 44.3243H-10.505Z" fill="white"/>
<path id="Vector_4" d="M72.4244 34.4464H106.74C107.879 34.4464 108.482 33.0046 107.695 32.138C107.015 31.39 105.95 31.0682 104.686 31.3923C104.32 28.446 102.106 26.1825 99.428 26.1825C98.2714 26.1825 97.1989 26.6067 96.3255 27.3277C95.6124 23.2322 92.4524 20.1453 88.6617 20.1453C84.8711 20.1453 81.7046 23.2382 80.9946 27.3394C79.8513 26.4621 78.4737 25.9511 76.9935 25.9511C73.7974 25.9511 71.0896 27.5908 70.152 31.3327C69.7579 32.9051 70.8791 34.4464 72.4244 34.4464Z" fill="white"/>
</g>
</g>
</g>
</g>
<g id="Group_4">
<g id="Group_5">
<path id="Vector_5" d="M92.3222 51.8573C92.3222 51.8573 86.3586 50.391 82.8078 57.9608C79.2569 65.5306 85.0009 76.6313 57.7437 71.5652C30.4866 66.4993 51.8133 36.2462 92.3222 51.8569V51.8573Z" fill="#FF3B6A"/>
<g id="Group_6" opacity="0.3">
<path id="Vector_6" d="M81.0209 56.6214C83.2127 51.9487 86.3234 50.7195 88.3836 50.4626C56.7484 40.2439 38.2295 58.3499 48.2612 67.4787C50.1762 68.6694 52.7241 69.6251 55.9569 70.2258C83.214 75.2916 77.4701 64.1912 81.0209 56.6214Z" fill="#000072"/>
</g>
<path id="Vector_7" d="M69.2593 73.5176C66.1087 73.5176 62.2638 73.086 57.6288 72.2245C50.7684 70.9494 46.3442 67.9787 45.1716 63.8601C44.2382 60.5813 45.5404 56.9399 48.744 53.8694C52.5479 50.2232 58.4865 47.7913 65.4658 47.0211C73.6852 46.1144 83.0512 47.5699 92.55 51.2301C92.8717 51.354 93.0442 51.7143 92.9441 52.0528C92.8441 52.3907 92.5065 52.5906 92.1731 52.5092C91.9356 52.4533 86.655 51.2991 83.393 58.2525C82.6616 59.8122 82.3341 61.5855 82.0176 63.3006C81.4192 66.5445 80.7999 69.8986 77.4449 71.8444C75.5199 72.9608 72.8378 73.518 69.2593 73.518V73.5176ZM70.3543 48.098C68.733 48.098 67.1478 48.1824 65.6042 48.3528C58.9021 49.0925 53.2286 51.3996 49.629 54.8501C46.7991 57.5627 45.6291 60.7092 46.4186 63.483C47.4453 67.0896 51.5086 69.7262 57.8591 70.9065C67.3135 72.6638 73.5117 72.5884 76.8075 70.6772C79.6361 69.0368 80.1725 66.129 80.7408 63.0504C81.0728 61.2503 81.4166 59.3886 82.2227 57.6698C84.161 53.5379 86.823 51.9946 88.7149 51.4277C88.7984 51.4026 88.8809 51.3791 88.9628 51.3577C82.5229 49.202 76.2084 48.0983 70.3539 48.0983L70.3543 48.098Z" fill="#000072"/>
</g>
<g id="Group_7">
<path id="Vector_8" d="M99.3642 54.9653C99.3642 54.9653 87.1364 45.5144 58.7886 53.2693C58.7886 53.2693 55.01 51.4277 57.1592 43.0884C57.1592 43.0884 87.2014 37.2973 99.3642 54.9653Z" fill="#FF3B6A"/>
<g id="Group_8" opacity="0.3">
<path id="Vector_9" d="M99.3642 54.9653C99.3642 54.9653 87.1364 45.5143 58.7886 53.2693C58.7886 53.2693 55.01 51.4277 57.1592 43.0884C57.1592 43.0884 60.9346 42.9963 65.0329 46.7231C66.4141 47.9791 68.2403 48.5818 70.0705 48.3702C76.566 47.6192 91.738 46.8822 99.3642 54.9653Z" fill="#000072"/>
</g>
<g id="Group_9" opacity="0.7">
<path id="Vector_10" d="M57.6464 44.7626C57.6464 44.7626 84.5208 39.5823 97.7242 53.9698C98.8279 54.5521 99.364 54.9653 99.364 54.9653C87.2012 37.2973 57.159 43.0884 57.159 43.0884C56.1028 47.1872 56.4787 49.7156 57.1337 51.2278C56.8699 49.7093 56.9108 47.6165 57.6464 44.7626Z" fill="white"/>
</g>
<path id="Vector_11" d="M99.3638 55.6353C99.2273 55.6353 99.0902 55.5911 98.9742 55.5014C98.9453 55.4793 95.8925 53.1813 89.4711 51.8436C83.5306 50.6066 73.4144 49.9614 58.9552 53.9169C58.8068 53.9578 58.6495 53.9427 58.5108 53.875C58.3363 53.7903 54.2682 51.6942 56.5318 42.9166C56.5961 42.6668 56.794 42.4776 57.0403 42.4304C57.1163 42.4157 64.7401 40.9749 73.7533 41.734C79.0642 42.1813 83.8198 43.293 87.8876 45.0379C93.0084 47.2341 97.0476 50.4442 99.8937 54.5782C100.079 54.8474 100.046 55.2151 99.817 55.4455C99.6916 55.5714 99.5279 55.6353 99.3635 55.6353H99.3638ZM79.5613 49.5562C83.7886 49.5562 87.2098 49.9989 89.837 50.5537C92.8527 51.1903 95.1427 52.0237 96.7587 52.7547C90.4432 45.9031 80.9219 43.6854 73.6776 43.0713C66.004 42.4211 59.3591 43.3968 57.6845 43.676C56.1896 49.9061 58.2599 52.0528 58.8977 52.5474C67.1704 50.3086 74.0502 49.5562 79.5613 49.5562Z" fill="#000072"/>
</g>
<g id="Group_10">
<path id="Vector_12" d="M16.5975 56.0438C16.5975 56.0438 17.6028 72.8496 12.9229 83.9353C12.9229 83.9353 27.4093 92.1477 35.0056 73.4038C35.0056 73.4038 24.3257 72.7103 16.5975 56.0438Z" fill="#FF3B6A"/>
<g id="Group_11" opacity="0.3">
<path id="Vector_13" d="M35.0051 73.4038C35.0051 73.4038 25.6075 72.7934 18.0643 58.9606C18.2348 63.6983 18.1747 71.5943 16.4914 78.5614C15.8601 81.1748 17.5688 83.7906 20.1648 84.0993C22.8878 84.4231 26.3798 84.1342 29.688 81.7976C31.6257 79.9195 33.4582 77.2206 35.0051 73.4038Z" fill="#000072"/>
</g>
<path id="Vector_14" d="M20.2021 86.4021C15.9913 86.4021 12.7888 84.6234 12.6094 84.5219C12.3154 84.3552 12.1929 83.9852 12.3267 83.6681C16.8916 72.855 15.9585 56.2514 15.9488 56.085C15.9296 55.7649 16.133 55.4759 16.4342 55.3956C16.7354 55.3149 17.0495 55.4659 17.1834 55.7552C21.0826 64.1641 25.7368 68.3336 28.9547 70.3507C32.4292 72.5285 35.0219 72.7341 35.0476 72.7358C35.2565 72.7505 35.4469 72.868 35.557 73.0519C35.6672 73.2354 35.6854 73.4627 35.6048 73.6619C33.0588 79.9446 29.4703 83.9574 24.9398 85.5891C23.2942 86.1817 21.6856 86.4024 20.2021 86.4024V86.4021ZM13.7618 83.6085C15.2694 84.3016 19.7995 86.027 24.5246 84.3197C28.4969 82.8839 31.7066 79.3928 34.0735 73.9375C32.9562 73.7102 30.882 73.1105 28.364 71.5474C25.333 69.6663 21.1021 65.996 17.3387 58.9918C17.4014 64.2318 17.0824 75.2655 13.7618 83.6085Z" fill="#000072"/>
</g>
<g id="Group_12">
<path id="Vector_15" d="M21.5756 68.6872L21.3937 68.4494C21.3937 68.4494 17.7109 64.6691 9.21794 62.7688C9.21794 62.7688 7.63403 63.1623 6.51962 61.9618C6.51962 61.9618 4.85773 64.0094 3.08376 61.0963C2.86608 60.7397 2.64677 60.3094 2.42908 59.7904C0.0621618 54.1566 6.35391 43.8652 14.3173 50.7915C15.7436 52.0321 17.2479 53.1822 18.8676 54.1416C19.7058 54.6371 20.6529 55.3001 21.4977 56.164C23.8743 58.5799 25.4517 62.5512 21.5756 68.6872Z" fill="#FA9B27"/>
<path id="Vector_16" d="M11.0211 63.2192C10.446 63.0601 9.84494 62.9095 9.21788 62.7688C9.21788 62.7688 7.63397 63.1623 6.51956 61.9618C6.51956 61.9618 4.42555 64.5418 2.42902 59.7904C0.0653498 54.1633 6.33761 43.892 14.2864 50.7647C14.8355 51.9735 15.2172 53.281 15.3439 54.6606C16.023 62.0322 11.0211 63.2192 11.0211 63.2192Z" fill="white"/>
<g id="Group_13" opacity="0.3">
<path id="Vector_17" d="M21.5759 68.6872L21.3939 68.4495C21.3939 68.4495 17.7111 64.6691 9.21816 62.7688C9.21816 62.7688 7.63426 63.1623 6.51984 61.9619C6.51984 61.9619 4.85796 64.0094 3.08398 61.0963C4.05545 61.3725 4.90507 61.3257 4.83521 60.8887C4.67926 59.8942 5.02366 58.7139 5.02366 58.7139C5.30762 59.8316 5.8788 60.429 6.48507 60.738C7.33827 61.173 8.3224 60.506 8.31038 59.5249C8.29901 58.5853 8.64308 57.8617 8.64308 57.8617C8.76492 59.5761 9.56581 60.4551 9.56581 60.4551C13.2551 60.9573 13.2031 57.9605 13.2031 57.9605C13.2031 57.9605 13.9179 62.5529 15.4076 61.401C16.8973 60.2475 15.5879 56.8137 15.5879 56.8137C15.5879 56.8137 19.3665 55.3571 21.4979 56.1641C23.8746 58.58 25.452 62.5512 21.5759 68.6872Z" fill="#000072"/>
</g>
<path id="Vector_18" d="M21.5754 69.3576C21.3763 69.3576 21.1875 69.2632 21.064 69.1008L20.911 68.8995C20.5815 68.5814 16.9439 65.2109 9.207 63.4513C8.77586 63.5223 7.57891 63.6244 6.52362 62.8479C6.09963 63.1526 5.4992 63.4087 4.81626 63.3073C3.67162 63.1365 2.668 62.0429 1.83332 60.0566C0.386524 56.6144 1.84599 51.6521 5.0203 49.2201C7.89179 47.0202 11.4332 47.4062 14.7365 50.2795C16.2974 51.6373 17.7546 52.7102 19.1913 53.56C21.9838 55.2114 23.7685 57.4037 24.3517 59.8993C24.9882 62.6219 24.2374 65.7021 22.1203 69.0535C22.0059 69.2347 21.8136 69.3475 21.604 69.3572C21.5946 69.3576 21.5849 69.3579 21.5754 69.3579V69.3576ZM9.21902 62.0992C9.26516 62.0992 9.3113 62.1042 9.35548 62.1139C16.4904 63.7111 20.2924 66.5934 21.4611 67.6117C23.0472 64.864 23.5944 62.3781 23.0882 60.213C22.5836 58.0539 21.0546 56.2063 18.5444 54.7219C17.0391 53.8316 15.5192 52.7132 13.898 51.3031C11.0538 48.8293 8.17608 48.4714 5.79552 50.2953C3.11636 52.3479 1.82227 56.6606 3.02571 59.5246C3.64823 61.0056 4.34742 61.8778 4.99463 61.9806C5.56061 62.07 6.02035 61.533 6.0249 61.5273C6.14479 61.3846 6.31926 61.2986 6.50218 61.2942C6.6877 61.2885 6.86347 61.3625 6.98954 61.4988C7.82194 62.3965 9.01856 62.1283 9.06892 62.1166C9.11765 62.1052 9.16834 62.0992 9.21902 62.0992Z" fill="#000072"/>
<path id="Vector_19" d="M8.96297 62.152C8.95062 62.1574 8.95484 62.1557 8.95744 62.154L8.96719 62.1487L8.99351 62.1333C9.01235 62.1222 9.03185 62.1085 9.05166 62.0948C9.0913 62.067 9.12899 62.0348 9.16506 62.0013C9.23686 61.934 9.29632 61.8584 9.34148 61.777C9.38664 61.6956 9.42466 61.6109 9.44285 61.5151C9.46819 61.4224 9.47079 61.3172 9.47307 61.2098L9.48119 61.104C9.50848 60.7484 9.81032 60.4828 10.1554 60.5109C10.2366 60.5176 10.3149 60.5411 10.3838 60.5759C10.4065 60.5873 10.4666 60.6121 10.5108 60.6295L10.6586 60.6844C10.7584 60.7196 10.8601 60.7497 10.9611 60.7781C11.1635 60.8321 11.3653 60.8662 11.5563 60.8766C11.9449 60.8943 12.2559 60.8076 12.5005 60.5501C12.6227 60.4205 12.7279 60.2457 12.8059 60.0412C12.8527 59.9437 12.8745 59.8292 12.9115 59.7217C12.9336 59.6072 12.9638 59.4947 12.9814 59.3755C13.0671 58.9014 13.1052 58.3967 13.2033 57.862C13.4557 58.3392 13.5922 58.8605 13.6296 59.4113C13.6413 59.5486 13.6305 59.6896 13.6312 59.8305C13.6146 59.9732 13.6136 60.1162 13.5802 60.2625C13.534 60.5535 13.4327 60.8565 13.2546 61.1361C13.0801 61.416 12.8199 61.6648 12.5213 61.8212C12.2234 61.9822 11.904 62.0579 11.5989 62.084C11.2928 62.1115 10.9962 62.0921 10.7116 62.0442C10.569 62.0211 10.4293 61.9879 10.2905 61.9508C10.2213 61.9313 10.1524 61.9106 10.0836 61.8868C10.0105 61.861 9.9536 61.8419 9.86197 61.8031L10.7724 61.1692C10.7733 61.3849 10.762 61.6055 10.7074 61.8269C10.6603 62.0479 10.5716 62.2642 10.4591 62.4617C10.3464 62.6603 10.2044 62.8378 10.0446 62.9884C9.96432 63.0638 9.88017 63.1338 9.79017 63.1977C9.74501 63.2295 9.6992 63.2607 9.65014 63.2898C9.62675 63.3045 9.59978 63.3193 9.57378 63.334L9.53122 63.3564L9.47274 63.3846L8.96362 62.1523L8.96297 62.152Z" fill="#000072"/>
<path id="Vector_20" d="M9.75868 61.7445C9.7145 61.7087 9.70605 61.6956 9.68201 61.6729C9.66154 61.6518 9.64659 61.6337 9.62905 61.6139C9.59363 61.5751 9.56634 61.5376 9.5358 61.4997C9.47894 61.4237 9.42436 61.3487 9.37725 61.2717C9.2788 61.1197 9.19823 60.964 9.12447 60.8076C8.97892 60.4945 8.87592 60.1744 8.79827 59.8557C8.72159 59.5362 8.67805 59.2161 8.65271 58.9C8.63874 58.7423 8.63939 58.5833 8.63257 58.4279L8.64297 57.9611L8.7921 58.3968C8.85123 58.5381 8.90289 58.68 8.96722 58.816C9.09361 59.0885 9.23299 59.3494 9.39382 59.5885C9.55529 59.8265 9.73139 60.0465 9.92373 60.2334C10.0202 60.3258 10.1187 60.4135 10.2204 60.4858C10.2701 60.5243 10.3217 60.5558 10.3708 60.5856C10.3952 60.5987 10.4205 60.6151 10.4426 60.6241C10.4533 60.6288 10.4663 60.6358 10.4748 60.6382C10.4803 60.6382 10.5004 60.6492 10.4865 60.6352L9.75836 61.7445H9.75868Z" fill="#000072"/>
<path id="Vector_21" d="M6.0722 62.4467C6.00202 62.3563 5.96206 62.2913 5.91365 62.215C5.86719 62.1416 5.82463 62.0676 5.78271 61.994C5.69921 61.8466 5.62416 61.6963 5.55301 61.5459C5.41265 61.2432 5.29731 60.9322 5.20731 60.6168C5.11471 60.3027 5.05396 59.9806 5.02244 59.6608C4.98378 59.3427 4.99807 59.0216 5.02276 58.7142C5.10626 59.0142 5.19789 59.3025 5.335 59.5694C5.46496 59.8376 5.61669 60.089 5.79051 60.3211C5.96206 60.5538 6.14953 60.7704 6.35032 60.9677C6.45202 61.0654 6.55436 61.1602 6.66028 61.2483C6.71324 61.2921 6.76587 61.335 6.81948 61.3748C6.86984 61.4127 6.9319 61.4585 6.96731 61.4753L6.07253 62.4467H6.0722Z" fill="#000072"/>
</g>
<path id="Vector_22" d="M87.8202 86.0873C86.017 88.2236 83.6062 88.4145 81.4261 87.9256C80.016 87.6092 78.7034 87.0098 77.7124 86.4674C76.6159 85.8646 75.9157 85.3339 75.9157 85.3339C73.8786 85.4143 72.834 85.0108 72.834 85.0108C72.8275 85.0158 72.8194 85.0225 72.8129 85.0275C70.8342 86.6164 68.9287 87.8837 67.1336 88.8933C67.0572 88.9368 66.9792 88.9804 66.9029 89.0222C61.347 92.0961 56.8991 92.7055 54.8685 92.8093C54.8538 92.8093 54.8392 92.811 54.8262 92.811C54.0789 92.8478 53.6712 92.8143 53.6712 92.8143C53.6972 92.826 53.7232 92.8377 53.7492 92.8495C53.7492 92.8495 53.7508 92.8495 53.754 92.8511C55.887 93.8121 56.173 96.8442 54.2463 98.1936C53.1416 98.9687 51.9752 99.2835 50.8592 99.327C47.7677 99.4509 45.0548 97.4971 45.0548 97.4971C34.7618 98.4095 32.7832 92.605 32.5102 89.1193C32.3965 87.708 32.5655 86.6766 32.5736 86.6281V86.6264C32.5736 86.6264 32.572 86.6247 32.5687 86.6214C30.8662 84.691 29.3944 82.8527 28.1224 81.1082C26.2558 78.5533 24.8198 76.1977 23.7183 74.0497C22.0565 70.8101 21.1581 68.0426 20.7081 65.769C20.2516 63.4736 20.2516 61.6839 20.3816 60.4232C20.5343 58.9616 20.8624 58.2116 20.8624 58.2116C20.8624 58.2116 22.8249 52.459 34.666 49.3282C37.5787 48.558 41.0893 47.947 45.3163 47.6188C66.7258 45.958 74.941 59.0738 76.5428 61.2788C76.5428 61.2788 76.5444 61.2804 76.546 61.2838C76.546 61.2854 76.5476 61.2871 76.5493 61.2888C76.5509 61.2921 76.5541 61.2955 76.5558 61.2988C77.165 62.1276 78.2729 62.9931 79.4165 63.7516C81.3107 65.0039 83.304 65.9615 83.304 65.9615C83.2488 67.1686 82.9028 68.0007 82.5892 68.5164C82.3082 68.9785 82.0515 69.1894 82.0515 69.1894C82.7988 72.6166 81.0102 73.8923 80.9647 73.9258H80.9631L80.9696 73.9325C81.0053 73.9593 81.1678 74.0865 81.4244 74.2975V74.2991C83.395 75.9215 90.8694 82.476 87.8202 86.0873Z" fill="#FA9B27"/>
<g id="Group_14">
<path id="Vector_23" d="M82.0516 69.1895C82.8086 72.6618 80.9631 73.9258 80.9631 73.9258C76.7508 71.4496 78.874 67.9706 78.874 67.9706C78.6726 65.0156 76.6744 61.5065 76.5493 61.2888C78.1592 63.4921 83.3041 65.9616 83.3041 65.9616C83.2001 68.2485 82.0516 69.1895 82.0516 69.1895Z" fill="white"/>
<path id="Vector_24" d="M87.8202 86.0874C83.564 91.1301 75.9158 85.334 75.9158 85.334C84.5127 84.907 81.4749 74.4716 81.4245 74.2992C83.3951 75.9215 90.8694 82.4761 87.8202 86.0874Z" fill="white"/>
<path id="Vector_25" d="M54.2465 98.1936C50.0779 101.117 45.0549 97.4971 45.0549 97.4971C49.6231 96.2666 49.7742 93.0521 49.7595 92.4343C49.7579 92.3673 49.7547 92.3305 49.7547 92.3305C50.2599 92.4477 50.7342 92.5381 51.168 92.6084H51.1745C52.7259 92.8612 53.7494 92.8495 53.7494 92.8495C53.7494 92.8495 53.751 92.8495 53.7542 92.8512C55.8872 93.8122 56.1731 96.8442 54.2465 98.1936Z" fill="white"/>
<path id="Vector_26" d="M72.834 85.0108C70.883 86.608 68.9612 87.8821 67.1336 88.8933C67.0572 88.9368 66.9793 88.9804 66.9029 89.0222C61.4721 91.9805 56.8959 92.6569 54.8685 92.8093C54.8539 92.8093 54.8392 92.811 54.8262 92.811C54.1326 92.8612 53.7492 92.8495 53.7492 92.8495C52.859 92.7842 51.998 92.7021 51.1678 92.6084C50.6886 92.5548 50.2191 92.4962 49.7594 92.4343C37.8322 90.8237 32.5736 86.6264 32.5736 86.6264C16.4357 68.3289 20.8625 58.2116 20.8625 58.2116C20.8625 58.2116 22.8249 52.459 34.666 49.3282L55.5979 60.4065C55.5979 60.4065 55.3428 66.5003 60.2505 70.4816C65.1582 74.4646 65.5497 78.0695 65.5497 78.0695C66.9858 84.0782 72.834 85.0108 72.834 85.0108Z" fill="white"/>
</g>
<g id="Group_15" opacity="0.3">
<path id="Vector_27" d="M57.9765 61.8162C56.9335 61.4144 56.3081 61.5483 56.3081 61.5483C54.0978 66.8937 48.8119 68.9915 45.534 69.7962C44.1876 70.1267 43.3968 71.5461 43.7763 72.9176C45.4001 78.7894 41.871 81.9969 41.871 81.9969C41.871 81.9969 41.1741 80.6709 38.1801 79.5575C36.7837 79.0392 35.7875 78.4817 35.1218 78.0343C34.5539 77.6529 33.804 77.8408 33.4336 78.4258C32.1005 80.5302 29.7193 81.0295 28.1231 81.1079C26.2565 78.553 24.8204 76.1974 23.719 74.0494C23.8015 73.3847 23.949 72.7545 24.1209 72.1883C24.5722 70.6992 24.0995 69.0672 22.9106 68.1022C21.9531 67.325 21.2341 66.4986 20.7091 65.7687C20.2526 63.4733 20.2526 61.6836 20.3826 60.4229C26.6061 59.2442 39.841 56.9656 45.9785 57.6387C54.0312 58.521 57.8602 61.7154 57.9771 61.8158L57.9765 61.8162Z" fill="#000072"/>
</g>
<g id="Group_16" opacity="0.3">
<path id="Vector_28" d="M72.8339 85.0108C72.8274 85.0158 72.8193 85.0225 72.8128 85.0275C70.8342 86.6164 68.9286 87.8838 67.1335 88.8933C67.0571 88.9368 66.9792 88.9804 66.9028 89.0222C61.347 92.0961 56.899 92.7055 54.8684 92.8093C54.8538 92.8093 54.8392 92.811 54.8262 92.811C54.0789 92.8478 53.6711 92.8143 53.6711 92.8143C53.6971 92.826 53.7231 92.8378 53.7491 92.8495C53.7491 92.8495 53.7507 92.8495 53.754 92.8512C55.887 93.8122 56.1729 96.8442 54.2462 98.1936C53.1415 98.9687 51.9751 99.2835 50.8591 99.327C52.4154 98.1099 53.7637 96.6767 53.3056 95.6136C52.469 93.6735 51.029 94.5743 50.1427 93.2125C49.7928 92.675 49.2375 92.3147 48.613 92.2484C47.7855 92.1607 46.5515 91.9796 45.0547 91.6055C45.0547 91.6055 53.227 91.9236 61.8564 88.3509C64.3741 87.3085 65.9229 84.6401 65.5142 81.876C65.3556 80.8045 65.3222 79.5284 65.5499 78.0698C65.5499 78.0698 66.5685 83.8275 72.8343 85.0111L72.8339 85.0108Z" fill="#000072"/>
</g>
<g id="Group_17" opacity="0.3">
<path id="Vector_29" d="M40.6945 90.4402C40.6945 90.4402 35.6439 91.0195 32.5102 89.1193C32.3964 87.7079 32.5654 86.6766 32.5735 86.6281C32.5735 86.6281 34.8462 88.9435 40.6945 90.4402Z" fill="#000072"/>
</g>
<g id="Group_18" opacity="0.3">
<path id="Vector_30" d="M78.8919 84.6893C78.8919 84.6893 78.8188 85.7039 77.7125 86.4674C76.6159 85.8646 75.9158 85.3339 75.9158 85.3339C75.9158 85.3339 76.5948 85.4143 78.8919 84.6893Z" fill="#000072"/>
</g>
<g id="Group_19" opacity="0.3">
<path id="Vector_31" d="M87.8201 86.0873C86.0169 88.2236 83.6061 88.4145 81.426 87.9256C82.9368 87.3999 84.5668 87.3323 86.0461 85.3339C88.0644 82.608 81.1937 74.1903 80.9695 73.9325C81.0052 73.9593 81.1677 74.0865 81.4243 74.2975V74.2991C83.3949 75.9215 90.8693 82.476 87.8201 86.0873Z" fill="#000072"/>
</g>
<g id="Group_20" opacity="0.3">
<path id="Vector_32" d="M78.8741 67.9706C78.5086 64.6272 76.7216 61.5784 76.5559 61.2988C77.1651 62.1276 78.273 62.9931 79.4167 63.7516C79.5986 66.4152 78.8741 67.9706 78.8741 67.9706Z" fill="#000072"/>
</g>
<g id="Group_21" opacity="0.3">
<path id="Vector_33" d="M82.0517 69.1895C82.799 72.6166 81.0104 73.8923 80.9649 73.9258H80.9633L79.5061 72.8459C79.5061 72.8459 81.4766 71.5853 82.0517 69.1895Z" fill="#000072"/>
</g>
<path id="Vector_34" d="M50.5696 100.013C47.895 100.013 45.5759 98.6362 44.8848 98.1828C39.9885 98.5759 36.3837 97.5105 34.1695 95.0155C31.5306 92.0418 31.7535 88.0264 31.888 86.8437C25.2376 79.2511 21.2474 72.1337 20.0284 65.6859C19.1284 60.9261 20.1294 58.2765 20.2578 57.9644C20.4924 57.3155 24.038 48.5975 45.2679 46.9511C54.0903 46.2663 61.7525 47.965 68.0439 51.9975C73.0751 55.2221 75.7968 59.0848 76.8215 60.5391C76.9144 60.671 76.9947 60.7848 77.0626 60.8786C78.5471 62.9238 83.5285 65.3303 83.5785 65.3544C83.8177 65.4693 83.9658 65.7214 83.9535 65.993C83.87 67.8226 83.1701 68.9138 82.7569 69.4044C83.1692 71.7225 82.4963 73.1339 81.9391 73.8621C83.6991 75.3204 88.7809 79.8337 89.1685 83.6168C89.2835 84.7385 88.995 85.7176 88.3114 86.5273C86.386 88.8075 83.5366 89.3989 80.0712 88.2386C77.973 87.5358 76.2721 86.4027 75.7188 86.0106C74.3685 86.0437 73.4448 85.8706 72.9721 85.7494C65.229 91.8911 58.5948 93.197 55.4887 93.4468C55.8679 93.9805 56.1063 94.6214 56.17 95.3206C56.2951 96.6948 55.7125 97.9759 54.6121 98.7474C53.2793 99.6819 51.8813 100.013 50.5693 100.013L50.5696 100.013ZM45.0557 96.8267C45.1886 96.8267 45.3186 96.8686 45.428 96.9476C45.4742 96.9807 50.1404 100.263 53.8814 97.6397C54.5845 97.1465 54.9565 96.3261 54.8762 95.4451C54.7953 94.5571 54.2771 93.8158 53.4896 93.4629L53.42 93.4321C53.1257 93.3048 52.9648 92.9763 53.0399 92.6566C53.1153 92.3371 53.4061 92.1198 53.7225 92.1469C53.8044 92.154 62.2213 92.7031 72.435 84.4837C72.6134 84.3404 72.8512 84.3026 73.063 84.3846C73.0689 84.3866 74.0381 84.7375 75.8907 84.6652C76.0375 84.6602 76.1821 84.705 76.3007 84.7948C76.3722 84.849 83.5187 90.1633 87.3308 85.648C87.774 85.1233 87.9524 84.5048 87.8757 83.7581C87.4761 79.8515 80.6417 74.5144 80.5725 74.4608C80.4039 74.3302 80.3074 74.1236 80.3136 73.9063C80.3198 73.689 80.4276 73.4884 80.6031 73.3682C80.6557 73.3297 82.0564 72.269 81.4166 69.3371C81.362 69.0866 81.4511 68.8261 81.646 68.666C81.6749 68.6409 82.4313 67.9689 82.6194 66.3653C81.3357 65.7161 77.4453 63.6427 76.0213 61.6805C75.9501 61.5828 75.8663 61.4639 75.7692 61.3256C67.2668 49.2592 54.5419 47.5756 45.3647 48.2865C34.5623 49.1242 28.6315 51.8549 25.5586 53.9982C22.2647 56.2956 21.4804 58.4171 21.4729 58.4386C21.468 58.4526 21.4612 58.4704 21.455 58.4844C21.4378 58.5256 20.4329 60.9904 21.3319 65.5771C22.1718 69.8634 24.8873 76.9162 33.0538 86.1757C33.1889 86.329 33.2477 86.5386 33.213 86.7426C33.2058 86.7854 32.505 91.1648 35.1358 94.1198C37.0982 96.3241 40.4171 97.2359 44.9995 96.8294C45.018 96.8277 45.0369 96.827 45.0551 96.827L45.0557 96.8267Z" fill="#000072"/>
<g id="Group_22">
<path id="Vector_35" d="M77.0892 60.9185C77.2536 61.2084 77.38 61.4766 77.511 61.7589C77.6416 62.0372 77.7553 62.3225 77.868 62.6071C77.9772 62.8934 78.0828 63.1807 78.1799 63.471C78.2719 63.7633 78.3655 64.0539 78.4425 64.3506C78.6023 64.9409 78.7306 65.5403 78.8115 66.1457C78.8993 66.7494 78.911 67.3659 78.8742 67.9703C78.6864 67.3916 78.5146 66.8274 78.3053 66.2766C78.1016 65.7255 77.8908 65.1817 77.6429 64.6546C77.5272 64.3884 77.3956 64.1286 77.2666 63.8698C77.1383 63.6103 77.0038 63.3541 76.8663 63.1006C76.7263 62.8485 76.5811 62.5997 76.4372 62.3526C76.2942 62.1092 76.1356 61.8574 75.9946 61.6404L77.0892 60.9185Z" fill="#000072"/>
<path id="Vector_36" d="M80.5784 74.4656C80.4618 74.3668 80.3578 74.2502 80.2568 74.13C80.1567 74.0082 80.0599 73.8812 79.9696 73.746C79.8767 73.614 79.7906 73.4724 79.7106 73.3221C79.6317 73.1704 79.5615 73.0066 79.5056 72.8228C79.6928 72.8228 79.8653 72.8426 80.0294 72.875C80.1925 72.9089 80.3491 72.9511 80.4992 73.003C80.6515 73.0515 80.7978 73.1084 80.9407 73.1704C81.0824 73.2337 81.2214 73.3013 81.3478 73.3864L80.5784 74.4659V74.4656Z" fill="#000072"/>
<path id="Vector_37" d="M72.7609 85.6768C72.6128 85.6577 72.5069 85.6383 72.385 85.6145C72.2668 85.5918 72.1511 85.566 72.0364 85.5362C71.8067 85.4779 71.5799 85.4136 71.3577 85.3363C70.9119 85.1859 70.4775 85.0031 70.0587 84.7868C69.2205 84.3568 68.4433 83.794 67.7737 83.1199C67.1031 82.4456 66.5576 81.6483 66.1518 80.7961C65.7645 79.9339 65.5377 79.0024 65.55 78.0698C65.9454 78.9083 66.3314 79.6968 66.7951 80.4241C67.0352 80.7817 67.2785 81.1323 67.5609 81.4487C67.8439 81.7638 68.1428 82.0602 68.4618 82.3307C69.1074 82.8638 69.8206 83.3018 70.5789 83.6379C70.9581 83.8054 71.3473 83.949 71.7417 84.0699C71.9393 84.1295 72.1375 84.1851 72.336 84.2316C72.4354 84.2551 72.5345 84.2768 72.6326 84.2972C72.7268 84.3173 72.8379 84.3364 72.9081 84.3461L72.7609 85.6768Z" fill="#000072"/>
<path id="Vector_38" d="M75.8755 84.6659C76.0993 84.682 76.356 84.6897 76.601 84.7021C76.8489 84.7111 77.0978 84.7138 77.3486 84.7161C77.8535 84.7215 78.3435 84.6783 78.8922 84.6887C78.6947 84.8852 78.4692 85.0449 78.234 85.1775C77.9981 85.3081 77.7531 85.421 77.5049 85.5248C77.2566 85.6286 77.0035 85.718 76.7475 85.7987C76.6195 85.8395 76.4909 85.879 76.3602 85.9112C76.2277 85.945 76.1032 85.9775 75.9561 86.0026L75.8758 84.6659H75.8755Z" fill="#000072"/>
<path id="Vector_39" d="M53.7488 93.5185C53.3895 93.4951 53.0532 93.4489 52.7085 93.3879C52.3664 93.3273 52.0262 93.252 51.6886 93.1599C51.3511 93.0681 51.0167 92.963 50.6895 92.8291C50.3633 92.6955 50.043 92.5357 49.7551 92.3305C50.1041 92.3519 50.442 92.3466 50.777 92.3422C51.1113 92.3382 51.4459 92.3181 51.7773 92.3037L53.7492 92.1791V93.5185H53.7488Z" fill="#000072"/>
<path id="Vector_40" d="M33.0645 86.1874C33.0895 86.2132 33.161 86.2835 33.2178 86.3344L33.4063 86.5019C33.5391 86.6124 33.674 86.7215 33.8147 86.8287C33.9511 86.9392 34.1029 87.0353 34.2445 87.1424L34.6922 87.4411C35.2975 87.8319 35.9412 88.1791 36.5991 88.5039L37.0959 88.7443L37.6008 88.971C37.7684 89.0494 37.9396 89.119 38.1122 89.1866C38.2834 89.2573 38.4549 89.3286 38.6255 89.4046C38.9693 89.5489 39.3153 89.6919 39.6587 89.8536C40.005 90.0053 40.3524 90.1627 40.6955 90.3572C40.3079 90.3777 39.9245 90.3606 39.5404 90.3378C39.1609 90.2943 38.7808 90.2431 38.4046 90.1717C38.0313 90.0877 37.6566 90.0047 37.2892 89.8908L36.7355 89.7261C36.551 89.6701 36.3697 89.6015 36.1874 89.5369C35.4593 89.2734 34.7403 88.965 34.0515 88.5732L33.5401 88.2665C33.3734 88.1536 33.2055 88.0468 33.0433 87.9233C32.8786 87.8061 32.7197 87.6755 32.5618 87.5415C32.4832 87.4702 32.4052 87.4026 32.3282 87.3259C32.2477 87.2452 32.183 87.1826 32.0823 87.0651L33.0645 86.1881V86.1874Z" fill="#000072"/>
<path id="Vector_41" d="M44.8547 96.8595L45.1399 96.7825L45.445 96.6975C45.65 96.6406 45.8554 96.5776 46.0607 96.509C46.2664 96.4403 46.4649 96.3573 46.6754 96.2766C46.8833 96.1915 47.0897 96.0974 47.3265 95.9896C47.2784 96.2491 47.1628 96.4892 47.0211 96.7065C46.8775 96.9218 46.703 97.1103 46.5198 97.2868C46.3346 97.4603 46.1374 97.619 45.9301 97.7623C45.8255 97.8316 45.7202 97.9009 45.6094 97.9612C45.4967 98.0255 45.3943 98.0777 45.2556 98.1336L44.854 96.8599L44.8547 96.8595Z" fill="#000072"/>
</g>
<path id="Vector_42" d="M22.8428 25.3785C22.8428 25.3785 22.7713 25.2278 22.6381 24.9583C21.6829 23.0128 17.529 14.9113 13.9973 13.4062C13.9973 13.4062 17.5274 10.5818 22.2515 13.0077C24.4235 14.1227 26.8472 16.3478 29.297 20.4647C29.297 20.4647 30.3822 26.0951 22.8428 25.3785Z" fill="#FA9B27"/>
<g id="Group_23" opacity="0.3">
<path id="Vector_43" d="M22.843 25.3785C22.843 25.3785 22.7716 25.2279 22.6383 24.9583C24.9728 20.5585 23.5513 15.8154 22.2517 13.0078C24.4237 14.1228 26.8475 16.3478 29.2972 20.4647C29.2972 20.4647 30.3824 26.0951 22.843 25.3785Z" fill="#000072"/>
</g>
<path id="Vector_44" d="M24.1049 26.1115C23.6852 26.1115 23.2443 26.0898 22.7826 26.0456C22.5561 26.0241 22.357 25.8818 22.2575 25.6709C22.2104 25.5704 17.4948 15.6212 13.749 14.0247C13.5349 13.9336 13.3841 13.7317 13.3532 13.4953C13.3224 13.2589 13.4156 13.0232 13.5985 12.8768C13.7048 12.7918 16.2397 10.8052 19.9371 11.4996C23.5143 12.1713 26.85 15.0697 29.8512 20.1141C29.8915 20.1818 29.9197 20.2561 29.9347 20.3338C29.9529 20.4286 30.3652 22.6787 28.8839 24.3727C27.8732 25.5286 26.2688 26.1112 24.1046 26.1112L24.1049 26.1115ZM23.2615 24.7417C25.4741 24.897 27.0375 24.4755 27.9105 23.486C28.8056 22.4711 28.7202 21.0902 28.6747 20.6991C25.902 16.0783 22.8937 13.4287 19.7314 12.8229C17.8083 12.4546 16.2371 12.9565 15.3092 13.4002C18.8249 15.9179 22.4414 23.0577 23.2618 24.7423L23.2615 24.7417Z" fill="#000072"/>
<path id="Vector_45" d="M22.8428 25.3785L16.4048 36.7666L15.9987 37.4865C15.9987 37.4865 15.8622 37.2872 15.6429 36.9072C15.6429 36.9072 15.6429 36.9055 15.6413 36.9038C14.3157 34.6169 9.94896 25.8038 13.5213 14.1613C13.713 13.5318 14.2247 13.1132 14.7981 13.0077C15.175 12.9357 15.5779 12.9994 15.9369 13.2254C17.6524 14.3103 20.2923 17.287 22.8428 25.3785Z" fill="#FF8DC1"/>
<g id="Group_24" opacity="0.3">
<path id="Vector_46" d="M22.8429 25.3785L16.405 36.7666C15.9274 36.8586 15.6431 36.9072 15.6431 36.9072C15.6431 36.9072 15.6431 36.9055 15.6415 36.9038C15.5849 36.7712 13.8753 32.7049 17.1302 28.1329C17.3313 27.8503 17.3722 27.478 17.2218 27.1639C16.8527 26.3941 16.3407 24.7761 17.2595 22.8555C17.2595 22.8555 15.6837 21.5647 16.7283 18.4707C17.3911 16.5085 16.3108 14.2333 14.7983 13.0077C15.1752 12.9357 15.5781 12.9994 15.9371 13.2254C17.6526 14.3103 20.2925 17.287 22.8429 25.3785Z" fill="#000072"/>
</g>
<path id="Vector_47" d="M22.5617 24.5096C21.2426 25.4103 19.5287 27.3323 19.5287 27.3323C19.3695 27.2536 19.225 27.1682 19.095 27.0795C16.8174 25.5225 18.7912 22.6411 18.7912 22.6411C17.2495 21.4575 17.6947 19.3848 17.6947 19.3848C18.4127 19.0432 19.0381 19.0164 19.5271 19.1069C20.2289 19.2341 20.648 19.5974 20.648 19.5974C21.2832 20.8882 22.5617 24.5096 22.5617 24.5096Z" fill="#FA9B27"/>
<path id="Vector_48" d="M19.5281 27.8349C19.4563 27.8349 19.3835 27.8185 19.3156 27.7847C18.3913 27.323 17.8139 26.6553 17.5998 25.8001C17.298 24.5947 17.8276 23.3574 18.1583 22.744C16.7905 21.3684 17.1985 19.3677 17.218 19.277C17.2509 19.1236 17.3512 18.9954 17.4893 18.9294C19.4972 17.9721 20.9031 19.1625 20.9619 19.2134C21.0119 19.2569 21.0529 19.3101 21.0824 19.3701C21.7238 20.6723 22.9672 24.1885 23.0198 24.3375C23.0968 24.5558 23.0189 24.7999 22.8307 24.9282C21.5769 25.7833 19.904 27.6534 19.8871 27.6722C19.7926 27.7783 19.6613 27.8346 19.5281 27.8346V27.8349ZM18.1352 19.7394C18.0849 20.2591 18.0898 21.4759 19.0817 22.238C19.2935 22.4008 19.341 22.7078 19.1886 22.9301C19.1795 22.9435 18.2402 24.3465 18.5443 25.5523C18.6626 26.0211 18.954 26.4008 19.4313 26.7062C19.9173 26.1825 20.9937 25.0634 21.9746 24.3201C21.6468 23.4066 20.7715 21.0024 20.2634 19.9296C20.0259 19.7659 19.2363 19.3209 18.1349 19.7394H18.1352Z" fill="#000072"/>
<g id="Group_25" opacity="0.3">
<path id="Vector_49" d="M22.5619 24.5096C21.2428 25.4104 19.529 27.3324 19.529 27.3324C19.3698 27.2537 19.2252 27.1683 19.0952 27.0796C20.6954 24.0944 20.2064 21.0842 19.5273 19.1069C20.2291 19.2342 20.6483 19.5975 20.6483 19.5975C21.2834 20.8883 22.5619 24.5096 22.5619 24.5096Z" fill="#000072"/>
</g>
<path id="Vector_50" d="M15.9982 38.1558C15.7874 38.1558 15.5889 38.0503 15.467 37.8715C15.3965 37.7684 13.7285 35.2969 12.5708 31.103C11.5058 27.2443 10.6984 21.1377 12.9009 13.959C13.1147 13.2625 13.6196 12.7161 14.2863 12.4593C14.9498 12.2038 15.6753 12.2748 16.276 12.6545C18.1212 13.8201 20.8656 16.9378 23.4603 25.1719C23.5175 25.3531 23.497 25.551 23.4038 25.716L16.5597 37.8233C16.4482 38.0202 16.2471 38.1454 16.0262 38.1551C16.0168 38.1555 16.0077 38.1558 15.9982 38.1558ZM15.0898 13.649C14.9729 13.649 14.8549 13.6707 14.7412 13.7146C14.4517 13.8261 14.2327 14.0625 14.1404 14.3632C12.0425 21.2 12.8009 27.0112 13.8061 30.6821C14.504 33.2299 15.4141 35.1308 15.9856 36.1789L22.1344 25.3015C19.6914 17.6694 17.2358 14.8316 15.597 13.7966C15.442 13.6985 15.2669 13.649 15.0898 13.649Z" fill="#000072"/>
<g id="Group_26">
<path id="Vector_51" d="M17.6384 60.4999C17.6384 60.4999 18.5819 68.2572 32.0888 69.2617C45.5954 70.2663 55.3425 64.0238 57.7097 56.4898C60.077 48.9558 54.618 55.3058 54.618 55.3058C54.618 55.3058 40.7147 69.9987 17.6384 60.4999Z" fill="#FF3B6A"/>
<g id="Group_27" opacity="0.3">
<path id="Vector_52" d="M57.8348 52.8072C57.7387 53.2679 57.5924 53.8201 57.3848 54.4811C55.0176 62.0151 45.2705 68.2575 31.7639 67.253C22.9642 66.5984 19.4978 63.0782 18.1498 60.7038C17.9793 60.6358 17.81 60.5709 17.6384 60.5002C17.6384 60.5002 18.5819 68.2575 32.0888 69.2621C45.5954 70.2666 55.3425 64.0241 57.7097 56.4901C58.5662 53.7648 58.3979 52.8567 57.8348 52.8072Z" fill="#000072"/>
</g>
<path id="Vector_53" d="M34.9347 70.0382C33.9824 70.0382 33.0178 70.0024 32.0415 69.9294C26.2748 69.5005 21.9977 67.8313 19.3296 64.9677C17.2798 62.7681 17.0043 60.671 16.9936 60.5829C16.965 60.3479 17.0592 60.1148 17.2412 59.9698C17.4231 59.8248 17.6658 59.79 17.8796 59.8778C29.5761 64.6928 38.8076 63.0705 44.4921 60.8619C50.5064 58.525 53.94 55.057 54.1437 54.8477C55.4599 53.3192 57.2517 51.6386 58.3424 52.2818C59.1647 52.766 59.1608 54.0451 58.3278 56.6961C57.0691 60.7025 53.8903 64.2448 49.377 66.6714C45.2485 68.8907 40.3015 70.0382 34.9351 70.0382H34.9347ZM18.6626 61.6223C18.956 62.303 19.4651 63.1984 20.3375 64.1152C22.0202 65.8832 25.4329 68.0955 32.135 68.5937C38.3735 69.0578 44.1282 67.9823 48.7756 65.4837C52.9847 63.2208 55.9378 59.9534 57.0912 56.2832C57.6497 54.5052 57.6757 53.7729 57.6478 53.505C57.1549 53.6908 56.0249 54.6786 55.1041 55.7498C55.0973 55.7578 55.0901 55.7655 55.083 55.7732C54.9371 55.9276 51.433 59.5814 45.0119 62.0907C41.247 63.5624 37.2585 64.3275 33.1572 64.365C28.4428 64.4079 23.5764 63.486 18.6626 61.622V61.6223Z" fill="#000072"/>
</g>
<g id="Group_28">
<path id="Vector_54" d="M22.3069 80.9575C24.3262 79.2347 23.8729 77.5136 24.8834 73.5307C25.4487 71.2989 26.7694 70.0717 27.8205 69.4221C28.6441 68.9148 29.3037 68.7625 29.3037 68.7625C31.3441 67.7178 33.2025 69.6214 33.2025 69.6214C33.8994 83.8991 22.3069 80.9575 22.3069 80.9575Z" fill="#FF3B6A"/>
<g id="Group_29" opacity="0.3">
<path id="Vector_55" d="M22.3069 80.9575C27.7172 80.4033 29.9658 76.9655 30.8041 75.0699C31.0939 74.4143 31.0517 73.6532 30.6907 73.0364C30.6143 72.9058 30.5484 72.7806 30.4919 72.6621C30.1543 71.9545 29.6812 71.3227 29.0853 70.8285C28.4768 70.3239 28.0762 69.8199 27.8205 69.4221C28.6441 68.9148 29.3037 68.7625 29.3037 68.7625C31.3441 67.7178 33.2025 69.6214 33.2025 69.6214C33.8994 83.8991 22.3069 80.9575 22.3069 80.9575Z" fill="#000072"/>
</g>
<g id="Group_30" opacity="0.7">
<path id="Vector_56" d="M26.0205 74.0329C26.5859 71.8012 27.9066 70.574 28.9577 69.9244C29.7813 69.4171 30.4408 69.2648 30.4408 69.2648C31.1647 68.8941 31.8655 68.8954 32.4689 69.0504C31.7414 68.5917 30.5575 68.1206 29.3037 68.7625C29.3037 68.7625 28.6441 68.9148 27.8205 69.4221C26.7694 70.0717 25.4487 71.2989 24.8834 73.5307C23.8729 77.5136 24.3262 79.2347 22.3069 80.9575C22.3069 80.9575 22.8781 81.1021 23.7579 81.1714C25.4162 79.5381 25.0663 77.7939 26.0205 74.0329Z" fill="white"/>
</g>
<path id="Vector_57" d="M24.6822 81.882C23.2676 81.882 22.2425 81.6309 22.1512 81.6074C21.9127 81.5468 21.7279 81.3533 21.6733 81.1065C21.6187 80.8597 21.7035 80.6026 21.8926 80.4412C23.1162 79.3975 23.2842 78.4201 23.6188 76.473C23.7702 75.592 23.9418 74.5935 24.254 73.3616C25.2748 69.3354 28.5102 68.285 29.0808 68.1297C31.4821 66.957 33.5722 69.0548 33.6606 69.1452C33.7753 69.2628 33.8435 69.4201 33.8516 69.5866C34.0859 74.3926 32.9887 77.8632 30.5903 79.9024C28.6997 81.5097 26.4032 81.882 24.6822 81.882ZM23.6468 80.4867C25.1488 80.6254 27.7805 80.5601 29.7699 78.8634C31.7849 77.1453 32.7249 74.1418 32.5654 69.9338C32.1144 69.5554 30.8833 68.7009 29.5928 69.3619C29.5467 69.3853 29.4979 69.4034 29.4479 69.4151C29.3241 69.4446 26.4029 70.1826 25.511 73.6998C25.2118 74.8798 25.0451 75.8502 24.898 76.7063C24.6387 78.2152 24.434 79.4048 23.6464 80.4864L23.6468 80.4867Z" fill="#000072"/>
<path id="Vector_58" d="M31.1018 68.8633C31.0186 68.9711 30.9225 69.1144 30.8322 69.242C30.7415 69.3749 30.6525 69.5099 30.5641 69.6458C30.3913 69.9197 30.2187 70.196 30.0634 70.4809C29.7483 71.0485 29.465 71.6361 29.2567 72.2469C29.2115 72.4006 29.1547 72.5533 29.1134 72.7083C29.0773 72.8637 29.0247 73.0194 29.0003 73.1771L28.9575 73.4142L28.936 73.5354L28.9159 73.673C28.8844 73.8555 28.8441 74.0346 28.797 74.2101C28.5997 74.9103 28.28 75.5498 27.8567 76.108C27.9802 75.4118 28.1088 74.7435 28.1543 74.0885C28.1822 73.7587 28.165 73.4614 28.1845 73.0716C28.204 72.7036 28.2514 72.3386 28.3246 71.98C28.4695 71.2621 28.7102 70.5754 29.0036 69.9187C29.1492 69.5893 29.3136 69.2701 29.4893 68.9574C29.5767 68.8007 29.67 68.6473 29.7658 68.4947C29.8649 68.3393 29.9591 68.1993 30.0803 68.0349L31.1018 68.863V68.8633Z" fill="#000072"/>
</g>
<g id="Group_31">
<path id="Vector_59" d="M42.2348 81.001C42.035 81.6238 41.8709 81.9972 41.8709 81.9972C41.174 78.3742 39.4342 78.3742 35.3258 75.6837C31.219 72.9932 32.0881 69.2614 32.0881 69.2614C32.5754 68.0426 33.8296 68.2217 33.8296 68.2217C35.4135 68.4042 36.7375 68.734 37.8373 69.176C44.4393 71.8246 43.0455 78.4729 42.2348 81.001Z" fill="#FF3B6A"/>
<g id="Group_32" opacity="0.3">
<path id="Vector_60" d="M42.2348 81.001C42.035 81.6238 41.8709 81.9972 41.8709 81.9972C41.174 78.3742 39.4342 78.3742 35.3258 75.6837C31.219 72.9932 32.0881 69.2614 32.0881 69.2614C32.5754 68.0426 33.8296 68.2217 33.8296 68.2217C35.4135 68.4042 36.7375 68.734 37.8373 69.176C37.719 69.689 37.5007 70.3118 37.0994 70.9363C36.3898 72.0409 36.603 73.5106 37.6085 74.3356C39.5073 75.8933 41.9431 78.3691 42.2348 81.001Z" fill="#000072"/>
</g>
<path id="Vector_61" d="M41.8706 82.6675C41.8456 82.6675 41.8206 82.6662 41.7956 82.6632C41.5152 82.6297 41.2881 82.4134 41.2332 82.1281C40.7611 79.6703 39.8234 79.1279 37.5579 77.8173C36.8138 77.387 35.9707 76.8992 34.9775 76.2486C30.5292 73.3348 31.4169 69.2765 31.4568 69.105C31.4646 69.0712 31.475 69.0384 31.4877 69.0066C32.0218 67.6695 33.2987 67.4727 33.9085 67.5567C38.1696 68.0473 41.072 69.6424 42.5354 72.2971C44.9117 76.6085 42.563 82.0457 42.4619 82.2751C42.3557 82.5162 42.1231 82.6675 41.8706 82.6675ZM32.7109 69.4657C32.631 69.9056 32.2402 72.869 35.6744 75.1185C36.6377 75.7493 37.4643 76.2275 38.1937 76.6494C39.9595 77.6707 41.1422 78.3547 41.8787 79.8622C42.3294 78.0557 42.6748 75.2558 41.4024 72.953C40.1542 70.6939 37.5819 69.326 33.7571 68.8867C33.7513 68.886 33.7454 68.8854 33.7396 68.8844C33.6216 68.8706 32.9965 68.8315 32.7109 69.4653V69.4657Z" fill="#000072"/>
<path id="Vector_62" d="M32.7561 68.0094C33.1443 68.1785 33.4835 68.3583 33.8335 68.5532C34.1814 68.7434 34.5193 68.9506 34.8507 69.1683C35.5135 69.6032 36.1474 70.0858 36.7459 70.6111C37.0399 70.882 37.3323 71.1519 37.603 71.4486C37.885 71.7302 38.1342 72.0493 38.3841 72.3604C38.8591 73.0083 39.2493 73.7299 39.4689 74.4997C38.9617 73.8859 38.4581 73.3254 37.9123 72.8044C37.359 72.292 36.781 71.8162 36.1676 71.3876C35.5502 70.9644 34.9121 70.5753 34.2578 70.2187C33.9306 70.0402 33.5992 69.8698 33.2665 69.706C32.9377 69.543 32.5868 69.3869 32.272 69.2523L32.7564 68.0094H32.7561Z" fill="#000072"/>
</g>
<g id="Group_33">
<path id="Vector_63" d="M36.4741 69.9562C35.0478 72.4675 32.0879 70.1705 32.0879 70.1705C29.0241 70.7665 27.8837 69.3736 27.5068 67.8433C27.4548 67.6324 27.4256 67.4198 27.4191 67.2122C27.3557 65.6568 28.4701 64.2488 30.0264 63.9859C33.5386 63.3933 35.5904 64.803 36.4238 66.5174C37.0021 67.7077 36.9924 69.0437 36.4741 69.9562Z" fill="#FF3B6A"/>
<g id="Group_34" opacity="0.3">
<path id="Vector_64" d="M36.474 69.9562C35.0477 72.4676 32.0878 70.1705 32.0878 70.1705C29.024 70.7666 27.8836 69.3736 27.5067 67.8434C27.4547 67.6324 27.4254 67.4198 27.4189 67.2122C27.6964 67.6164 28.1636 68.0798 28.9388 68.4106C29.5321 68.6634 30.2193 68.4146 30.5055 67.8226C30.5793 67.6703 30.6706 67.5109 30.7833 67.3545C30.7833 67.3545 34.8414 70.8285 36.4236 66.5174C37.002 67.7078 36.9922 69.0438 36.474 69.9562Z" fill="#000072"/>
</g>
<g id="Group_35" opacity="0.7">
<path id="Vector_65" d="M28.644 68.1782C28.592 67.9672 28.5627 67.7546 28.5562 67.547C28.4929 65.9916 29.6073 64.5836 31.1636 64.3208C32.2592 64.1359 33.2127 64.146 34.0315 64.2993C33.0016 63.8707 31.6747 63.708 30.0264 63.9859C28.4701 64.2488 27.3557 65.6568 27.4191 67.2121C27.4256 67.4197 27.4548 67.6324 27.5068 67.8433C27.7914 68.9989 28.512 70.0754 30.1668 70.277C29.2951 69.8279 28.8522 69.0243 28.644 68.1782Z" fill="white"/>
</g>
<path id="Vector_66" d="M34.5924 71.7992C33.4679 71.7992 32.4038 71.1858 31.9395 70.8771C28.3032 71.4747 27.207 69.3505 26.8763 68.0088C26.6238 66.9848 26.7973 65.9294 27.3646 65.0364C27.9432 64.1259 28.8747 63.5021 29.9206 63.3257C32.8996 62.8227 35.3569 63.6585 36.6623 65.6183C37.6403 67.0866 37.7901 68.9658 37.035 70.2941C36.5814 71.0924 35.9521 71.5796 35.1645 71.7423C34.9738 71.7818 34.7821 71.7992 34.5921 71.7992H34.5924ZM32.0884 69.5012C32.2284 69.5012 32.3658 69.5477 32.4792 69.6358C32.8483 69.9197 34.0085 70.6179 34.9124 70.4284C35.325 70.3423 35.6522 70.0768 35.9138 69.617C36.4115 68.7411 36.279 67.4084 35.5911 66.3761C34.9982 65.4861 33.501 64.0777 30.1308 64.647C29.4433 64.7631 28.8312 65.1723 28.4517 65.7697C28.0862 66.3449 27.9741 67.023 28.1356 67.6786C28.5437 69.3344 29.7975 69.9345 31.9675 69.5126C32.0075 69.5049 32.0477 69.5008 32.088 69.5008L32.0884 69.5012Z" fill="#000072"/>
<path id="Vector_67" d="M31.6436 70.6587C31.5783 70.5736 31.5448 70.516 31.5029 70.4467C31.4626 70.3804 31.4265 70.3141 31.3905 70.2478C31.32 70.1149 31.2563 69.981 31.1975 69.846C31.0802 69.5761 30.9866 69.2996 30.9158 69.0203C30.8433 68.7421 30.7949 68.4601 30.7745 68.1798C30.7472 67.9013 30.7608 67.622 30.7829 67.3541C30.8684 67.6116 30.9603 67.8584 31.0864 68.0868C31.2056 68.3165 31.3453 68.5301 31.5 68.7273C31.653 68.9249 31.8193 69.1077 31.9971 69.2718C32.0861 69.3538 32.1767 69.4318 32.269 69.5042C32.3155 69.5393 32.3616 69.5751 32.4081 69.6066C32.4513 69.6364 32.5068 69.6749 32.5332 69.6826L31.6433 70.6587H31.6436Z" fill="#000072"/>
</g>
<path id="Vector_68" d="M56.5466 37.2688C57.2858 40.7981 57.4076 43.296 57.3248 45.8693C57.2565 47.9838 56.8618 50.0263 56.1827 51.935C54.0578 57.9337 49.1502 62.6232 42.8714 64.145C29.8769 67.2925 16.2505 62.4038 14.1727 56.3147C13.7 54.9318 13.4254 53.6477 13.2955 52.469C12.9429 49.2746 13.6561 46.8453 14.3985 45.2783C14.5041 45.0539 14.6032 44.8246 14.6942 44.5935C15.2449 43.2173 15.5308 41.739 15.4983 40.2456C15.2709 29.6478 21.2345 25.0956 24.1716 23.5C25.1268 22.981 25.762 22.7751 25.762 22.7751L25.7604 22.7734C23.4113 19.5188 24.5339 16.5336 24.5339 16.5336C29.0419 14.9431 32.6418 18.176 33.1698 18.6833C33.1779 18.69 33.1844 18.6967 33.1893 18.7034C33.2137 18.7252 33.2283 18.7402 33.2348 18.7469C33.2348 18.7486 33.2364 18.7486 33.2364 18.7486C32.3316 14.6937 34.2469 12.3263 34.2469 12.3263C37.6437 13.6272 39.3852 16.0431 40.2592 17.9266C40.9545 19.42 41.1039 20.5785 41.1039 20.5785C42.0543 17.6922 44.4748 14.6886 45.9206 13.0697C46.8255 12.0568 47.8652 11.1778 49.0332 10.5081C51.7429 8.95277 53.7849 9.12521 55.2502 10.5098H55.2519C55.3006 10.5567 55.3493 10.6035 55.3965 10.6521C57.3442 12.6478 58.2247 16.8584 58.267 21.9765C58.3579 32.812 56.5466 37.2688 56.5466 37.2688Z" fill="#FA9B27"/>
<path id="Vector_69" d="M56.1828 51.9349C54.058 57.9336 49.1503 62.6231 42.8715 64.145C29.877 67.2925 16.2506 62.4038 14.1728 56.3147C12.42 51.1832 13.3833 47.4246 14.3986 45.2782C14.5042 45.0539 14.6033 44.8245 14.6943 44.5935C15.5667 46.0333 17.6395 48.1596 21.9932 47.1266C28.3467 45.6198 26.2056 33.6726 29.8608 32.2193C33.5159 30.7661 29.0745 43.9774 37.7186 47.3995C45.6657 50.547 53.3708 39.457 56.1828 51.9349Z" fill="white"/>
<path id="Vector_70" d="M23.3961 36.4491C23.424 36.7682 23.0822 36.9785 22.8255 36.798C22.2995 36.4277 21.4821 36.0299 20.7221 36.3996C19.469 37.0093 19.1502 33.4898 21.3138 33.9421C22.9282 34.2797 23.3197 35.5782 23.3957 36.4491H23.3961Z" fill="white"/>
<path id="Vector_71" d="M37.1543 36.27C37.1241 36.5613 37.4964 36.7535 37.7762 36.5884C38.3496 36.2502 39.2408 35.8872 40.0693 36.2248C41.4356 36.7816 41.7832 33.5681 39.4241 33.981C37.6641 34.289 37.2368 35.4747 37.1543 36.27Z" fill="white"/>
<path id="Vector_72" d="M56.7106 36.7966C56.6083 37.1148 56.5466 37.2688 56.5466 37.2688C56.5466 37.2688 55.3282 28.7219 47.9854 23.7863C47.9854 23.7863 50.3571 13.2521 55.2502 10.5098H55.2518C55.3006 10.5566 55.3493 10.6035 55.3964 10.6521C57.3442 12.6477 58.2247 16.8584 58.2669 21.9765C58.3417 30.803 57.1525 35.397 56.7106 36.7966Z" fill="#FF8DC1"/>
<g id="Group_36" opacity="0.3">
<path id="Vector_73" d="M26.4491 48.0769C26.4491 48.0769 26.7275 50.4854 25.1612 51.3979C23.5948 52.3103 21.7809 51.8261 21.1649 50.4087C21.1649 50.4087 19.784 53.4357 23.9217 54.8752C23.9217 54.8752 24.7437 57.2071 26.7626 58.8394C26.7626 58.8394 26.1895 61.6725 28.6071 62C30.5484 62.2628 31.8301 61.5141 32.26 61.2088C32.3711 61.1301 32.4965 61.0782 32.6287 61.0517C33.5333 60.8699 37.0429 59.7954 36.589 54.1C36.5643 53.7886 36.654 53.4799 36.8369 53.2308C37.1865 52.7546 37.6972 51.8265 37.5198 50.6287C37.4633 50.2463 37.0185 50.0729 36.7293 50.3197C35.805 51.1089 33.8845 52.4807 32.0364 52.1308C29.4778 51.6466 29.6055 49.1711 29.3414 47.7541C29.0775 46.337 26.4491 48.0769 26.4491 48.0769Z" fill="#000072"/>
</g>
<g id="Group_37" opacity="0.3">
<path id="Vector_74" d="M56.5468 37.2688C57.286 40.798 57.4078 43.296 57.3249 45.8692C57.2567 47.9838 56.862 50.0263 56.1829 51.9349C54.058 57.9337 49.1504 62.6231 42.8716 64.145C29.8771 67.2925 16.2507 62.4038 14.1729 56.3147C13.7002 54.9318 13.4256 53.6477 13.2957 52.469C15.1379 55.9681 19.8181 61.2787 31.435 62.3687C31.435 62.3687 32.1011 62.4011 33.1287 62.3898C37.2004 62.3442 40.4339 58.9285 40.4966 54.7326C40.5414 51.733 41.7159 48.2614 45.9871 45.8341C45.9871 45.8341 58.5917 38.655 47.9853 23.7863C47.9853 23.7863 54.7221 28.2732 56.5465 37.2688H56.5468Z" fill="#000072"/>
</g>
<g id="Group_38" opacity="0.3">
<path id="Vector_75" d="M32.7068 25.7653C27.7504 27.1549 25.2779 25.0705 24.1716 23.5001C25.1268 22.9811 25.762 22.7751 25.762 22.7751C28.9039 26.1202 32.7068 25.7653 32.7068 25.7653Z" fill="#000072"/>
</g>
<g id="Group_39" opacity="0.7">
<path id="Vector_76" d="M32.7069 25.7653C27.5897 25.6062 25.7621 22.7751 25.7621 22.7751L25.7605 22.7735C23.4114 19.5188 24.5339 16.5337 24.5339 16.5337C29.042 14.9432 32.6419 18.1761 33.1699 18.6834C33.178 18.6901 33.1845 18.6968 33.1894 18.7034C33.2137 18.7252 33.2284 18.7403 33.2349 18.747C29.3454 16.3354 26.7875 17.1655 26.0113 17.5302C25.8518 17.6052 25.7488 17.7676 25.7367 17.948C25.3563 23.5754 32.7072 25.7653 32.7072 25.7653H32.7069Z" fill="white"/>
</g>
<g id="Group_40" opacity="0.3">
<path id="Vector_77" d="M41.1042 20.5785C41.1042 20.5785 40.4251 22.0318 40.3293 23.4749C40.3293 23.4749 39.0183 21.0624 40.2594 17.9266C40.9547 19.42 41.1042 20.5785 41.1042 20.5785Z" fill="#000072"/>
</g>
<g id="Group_41" opacity="0.7">
<path id="Vector_78" d="M55.3965 10.6521C45.7387 10.4478 40.3291 23.4749 40.3291 23.4749C40.5289 21.8878 41.104 20.5785 41.104 20.5785C42.0543 17.6922 44.4749 14.6886 45.9207 13.0697C46.8255 12.0568 47.8652 11.1778 49.0333 10.5081C51.743 8.95277 53.785 9.12521 55.2503 10.5098H55.2519C55.3007 10.5567 55.3494 10.6035 55.3965 10.6521Z" fill="white"/>
</g>
<g id="Group_42" opacity="0.3">
<path id="Vector_79" d="M56.7106 36.7966C56.6083 37.1148 56.5466 37.2688 56.5466 37.2688C56.5466 37.2688 55.3282 28.7219 47.9854 23.7863C47.9854 23.7863 50.3571 13.2521 55.2502 10.5098H55.2518C55.3006 10.5566 55.3493 10.6035 55.3964 10.6521C55.3964 10.6521 52.7663 15.447 52.1051 17.3489C52.1051 17.3489 55.1072 16.8835 54.6637 19.1705C54.3613 20.7245 54.0484 21.5459 53.8788 21.9125C53.8109 22.0599 53.8404 22.2326 53.9506 22.3498C54.5214 22.9566 56.0374 25.0092 54.7157 28.6499C54.7157 28.6499 56.9007 33.2657 56.7106 36.7966Z" fill="#000072"/>
</g>
<g id="Group_43" opacity="0.7">
<path id="Vector_80" d="M27.0616 23.6123C27.0616 23.6123 26.4264 23.8182 25.4712 24.3372C24.2405 25.0065 22.4759 26.1956 20.8605 28.131C20.7364 28.2796 20.6886 28.4852 20.7452 28.6724C20.9479 29.3461 20.7172 30.5907 20.1006 31.8661C19.4472 33.2129 18.5625 34.1836 17.9058 34.3504C17.7025 34.4019 17.5462 34.566 17.4916 34.7743C17.014 36.5911 16.7466 38.6799 16.7979 41.0827C16.8304 42.5761 16.5445 44.0545 15.9938 45.4307C15.9028 45.6617 15.8037 45.8911 15.6981 46.1154C14.9557 47.6825 14.2426 50.1118 14.5951 53.3062C14.725 54.4848 14.9996 55.769 15.4723 57.1519C15.9938 58.6771 17.2398 60.1286 19.0186 61.396C16.5461 59.9478 14.8128 58.1882 14.1727 56.3148C13.7 54.9318 13.4254 53.6477 13.2955 52.4691C12.9429 49.2747 13.6561 46.8454 14.3985 45.2783C14.5041 45.054 14.6032 44.8246 14.6942 44.5936C15.2449 43.2173 15.5308 41.739 15.4983 40.2456C15.2709 29.6478 21.2345 25.0956 24.1716 23.5001C25.1268 22.9811 25.762 22.7751 25.762 22.7751C25.7636 22.7768 27.0616 23.6123 27.0616 23.6123Z" fill="white"/>
</g>
<path id="Vector_81" d="M34.4904 65.7898C30.974 65.7898 27.4634 65.3029 24.2465 64.3362C18.6471 62.6536 14.6518 59.7378 13.5591 56.5364C11.7556 51.2519 12.702 47.3379 13.8135 44.9853C14.5247 43.4798 14.8828 41.8461 14.849 40.261C14.6888 32.7668 17.5967 28.2417 20.0644 25.7656C21.9023 23.9209 23.751 22.9181 24.7696 22.4577C22.8611 19.2341 23.8813 16.4181 23.9288 16.2915C23.998 16.107 24.1429 15.9637 24.3242 15.8997C27.8026 14.6729 30.7423 16.0688 32.3603 17.1819C32.1677 13.8987 33.6733 11.9901 33.7477 11.898C33.9241 11.68 34.2149 11.6004 34.4732 11.6991C38.6807 13.3097 40.4878 16.5028 41.2406 18.5674C42.4447 16.1593 44.3015 13.8954 45.4426 12.6169C46.4325 11.5079 47.5343 10.6015 48.7166 9.92312C51.1073 8.55127 53.1688 8.3651 54.8433 9.36896C58.1378 11.3449 58.8767 17.3128 58.9163 21.9715C58.9988 31.6802 57.5764 36.3219 57.2223 37.3237C58.0014 41.1222 58.0449 43.6861 57.9741 45.8913C57.6833 54.9599 51.5338 62.734 43.0201 64.7966C40.2815 65.4599 37.384 65.7901 34.4904 65.7901V65.7898ZM16.1483 40.2311C16.1866 42.0286 15.7834 43.8752 14.9822 45.5712C13.9792 47.6945 13.1306 51.2431 14.7853 56.0917C15.7249 58.8451 19.4896 61.5115 24.6104 63.0501C30.266 64.7494 36.8674 64.9105 42.7225 63.4924C50.666 61.568 56.4035 54.312 56.6751 45.8468C56.7443 43.6897 56.6998 41.1747 55.9116 37.4104C55.8837 37.2765 55.896 37.1369 55.9473 37.0103C55.9642 36.9681 57.706 32.504 57.6167 21.9828C57.565 15.889 56.3479 11.8203 54.1899 10.5262C52.9397 9.77646 51.311 9.96699 49.3492 11.0927C48.2881 11.7018 47.2955 12.5195 46.3994 13.5234C45.0465 15.0389 42.6393 17.9989 41.7205 20.7928C41.6236 21.0875 41.3426 21.275 41.0421 21.2442C40.7415 21.214 40.5008 20.9746 40.4611 20.6662C40.4319 20.4483 39.6986 15.4109 34.492 13.1463C34.0495 13.9198 33.2483 15.808 33.8714 18.5979C33.9364 18.8889 33.8065 19.1892 33.553 19.3339C33.2993 19.4786 32.9835 19.4327 32.7788 19.2217C32.6378 19.0777 29.3355 15.7671 25.0578 17.064C24.8716 17.8308 24.5714 20.0026 26.284 22.3756C26.4094 22.5494 26.4455 22.7754 26.3808 22.9817C26.3161 23.1879 26.1582 23.349 25.9578 23.4143C25.9334 23.4223 23.3917 24.2769 20.9279 26.7694C17.6373 30.0984 16.0294 34.6279 16.1493 40.2315L16.1483 40.2311Z" fill="#000072"/>
<g id="Group_44">
<path id="Vector_82" d="M26.295 22.3931L26.3447 22.4597C26.3629 22.4855 26.3873 22.5133 26.4094 22.5407C26.4526 22.596 26.4984 22.6526 26.5471 22.7078C26.6394 22.8207 26.7463 22.9271 26.849 23.035C27.0621 23.2456 27.2827 23.4535 27.5209 23.643C27.9939 24.0248 28.5086 24.3646 29.0609 24.6479C29.1983 24.7202 29.3426 24.7765 29.4833 24.8445L29.6961 24.9442L29.9154 25.0266L30.3573 25.195L30.8118 25.3333L31.0406 25.4067L31.2735 25.4612L31.7433 25.5761C32.0591 25.6487 32.3808 25.6899 32.7067 25.7629C32.5449 25.7921 32.3818 25.8165 32.2177 25.8389C32.0536 25.858 31.8879 25.8952 31.7225 25.8989L31.2228 25.9166L30.971 25.9213L30.7202 25.9062L30.2156 25.8681C30.048 25.8466 29.8813 25.8158 29.714 25.7867L29.4622 25.7422L29.2139 25.6789C29.0492 25.6337 28.8819 25.5932 28.7185 25.5393L28.2308 25.3648C28.068 25.3052 27.9137 25.2245 27.7542 25.1545C27.5936 25.0862 27.4426 24.9978 27.2882 24.9144C27.1333 24.8324 26.9854 24.737 26.8379 24.6402C26.6872 24.5481 26.5455 24.4413 26.4045 24.3335C26.2606 24.2293 26.1264 24.1101 25.9912 23.9926C25.8603 23.8684 25.7277 23.7475 25.6033 23.6109C25.5403 23.5449 25.4769 23.4773 25.4171 23.4036C25.3869 23.3668 25.357 23.3323 25.3265 23.2914C25.2956 23.2506 25.2686 23.2175 25.228 23.1589L26.295 22.3941V22.3931Z" fill="#000072"/>
<path id="Vector_83" d="M33.6836 18.2618C33.7242 18.3063 33.7434 18.3311 33.7694 18.3636C33.7944 18.3947 33.8155 18.4258 33.8376 18.4563C33.8815 18.5179 33.9221 18.5789 33.962 18.6405C34.0394 18.7647 34.1122 18.8893 34.1755 19.0185C34.3061 19.274 34.414 19.5382 34.5037 19.8061C34.5914 20.075 34.6645 20.3462 34.7103 20.6228C34.761 20.8973 34.7811 21.1783 34.7818 21.4569L34.2863 20.8203C34.1268 20.6134 33.9575 20.4192 33.7944 20.228C33.628 20.0388 33.4562 19.86 33.2856 19.6889C33.1998 19.6035 33.1134 19.5215 33.028 19.4418C32.986 19.4019 32.9432 19.3627 32.9012 19.3266L32.8392 19.274C32.8213 19.2583 32.7956 19.2362 32.7908 19.2345L33.6836 18.2611V18.2618Z" fill="#000072"/>
<path id="Vector_84" d="M41.7086 20.8246C41.6235 21.0309 41.5175 21.2583 41.4149 21.4756L41.0942 22.1366C40.9795 22.3562 40.8824 22.5819 40.7605 22.8042C40.638 23.0272 40.5084 23.2496 40.33 23.4753C40.2287 23.2057 40.1864 22.9345 40.1731 22.668C40.1594 22.4011 40.1802 22.1396 40.1991 21.8771C40.2235 21.6155 40.2569 21.3554 40.305 21.0985C40.355 20.8397 40.4106 20.5929 40.5009 20.3314L41.7092 20.825L41.7086 20.8246Z" fill="#000072"/>
<path id="Vector_85" d="M55.6025 11.074L55.5235 11.137L55.4313 11.2117L55.2438 11.3767C55.1174 11.4849 54.9982 11.6138 54.8727 11.728C54.63 11.9738 54.389 12.2229 54.1628 12.4918C53.9253 12.7473 53.7132 13.0312 53.4916 13.3044C53.3782 13.4387 53.2817 13.5894 53.1761 13.731L52.8619 14.1596C52.0506 15.3269 51.3482 16.5849 50.7224 17.8851L50.2594 18.8658L49.8452 19.8727L49.6369 20.3767L49.4491 20.8896L49.0745 21.9179C48.8328 22.6077 48.6502 23.3173 48.4036 24.01C48.1801 24.7105 47.9159 25.4013 47.4747 26.0667C47.4113 25.6739 47.4019 25.2892 47.4123 24.9074C47.425 24.5264 47.4581 24.148 47.514 23.775C47.5842 23.4053 47.6774 23.041 47.7645 22.675L47.8964 22.1262C47.94 21.9431 47.9825 21.7596 48.0394 21.5798L48.3581 20.4949L48.5186 19.9521L48.71 19.4193L49.095 18.3532L49.5333 17.3061C50.1457 15.9226 50.8508 14.5705 51.7209 13.3182C51.946 13.0104 52.1614 12.6957 52.4015 12.3983C52.6455 12.104 52.8788 11.8017 53.1436 11.5224C53.3983 11.2364 53.6751 10.9672 53.9555 10.701C54.1024 10.5718 54.2434 10.4419 54.3997 10.319C54.5579 10.1921 54.6979 10.0809 54.901 9.94562L55.6025 11.073V11.074Z" fill="#000072"/>
<path id="Vector_86" d="M55.9103 37.4054C54.1178 28.5033 47.713 24.4001 47.6487 24.3596L48.3216 23.2137C48.6045 23.3899 55.2706 27.6377 57.1826 37.1335L55.91 37.4054H55.9103Z" fill="#000072"/>
</g>
<g id="Group_45">
<path id="Vector_87" d="M23.2791 53.3594C23.2791 53.3594 24.7691 59.1538 29.5731 60.1225C34.3771 61.0912 36.1972 56.2614 35.0886 53.3594C35.0886 53.3594 28.7891 55.575 28.0454 49.6824C28.0454 49.6824 27.6532 53.947 23.2791 53.3594Z" fill="#000072"/>
<path id="Vector_88" d="M30.7776 60.9174C30.3494 60.9174 29.9055 60.8719 29.4484 60.7798C24.3045 59.7425 22.7161 53.7843 22.6511 53.5311C22.5955 53.3155 22.6482 53.0855 22.7911 52.9177C22.9341 52.7503 23.1485 52.6666 23.3633 52.6954C24.5118 52.8497 25.4423 52.6441 26.1285 52.0846C27.2309 51.1856 27.3973 49.6322 27.3989 49.6168C27.4327 49.2786 27.7069 49.0188 28.0367 49.0141H28.0458C28.3717 49.0141 28.6478 49.2622 28.6901 49.5961C28.8646 50.979 29.3909 51.9617 30.2542 52.5169C32.0684 53.6832 34.8522 52.7345 34.8801 52.7252C35.2083 52.6106 35.567 52.7814 35.6937 53.1139C36.4205 55.0168 36.0215 57.4676 34.7235 59.0738C33.7449 60.2846 32.3732 60.9171 30.7779 60.9171L30.7776 60.9174ZM24.2139 54.0836C24.8325 55.6574 26.4547 58.8113 29.6979 59.4652C31.8423 59.8975 33.0714 59.0252 33.7245 58.2166C34.5903 57.1451 34.9438 55.5312 34.6527 54.1774C33.563 54.4406 31.3156 54.7747 29.5715 53.657C28.8941 53.2231 28.3671 52.623 27.9941 51.8639C27.7433 52.3046 27.4044 52.7493 26.9473 53.125C26.201 53.7387 25.2844 54.0595 24.2139 54.0836Z" fill="#000072"/>
</g>
<g id="Group_46">
<path id="Vector_89" d="M29.8867 53.8757C29.8867 53.8757 24.2263 56.7323 26.9886 60.284C29.1034 63.0026 31.8735 60.074 33.5659 58.7045C34.5549 57.9042 35.1206 56.6452 34.9854 55.3567C34.9786 55.2925 34.9702 55.2275 34.9601 55.1625C34.9601 55.1625 34.5858 54.1138 29.8864 53.8757H29.8867Z" fill="#FF5C9E"/>
<g id="Group_47" opacity="0.3">
<path id="Vector_90" d="M34.9855 55.3568C34.9787 55.2925 34.9702 55.2275 34.9601 55.1626C34.9601 55.1626 34.889 54.9643 34.4227 54.7206C34.2301 55.5574 33.7531 56.3171 33.0783 56.8629C31.3859 58.2321 28.6158 61.161 26.501 58.442C26.4025 58.3155 26.3161 58.1899 26.2381 58.0653C26.1809 58.7558 26.3807 59.5032 26.9883 60.2837C29.1031 63.0023 31.8732 60.0737 33.5657 58.7045C34.5547 57.9043 35.1203 56.6453 34.9852 55.3568H34.9855Z" fill="#000072"/>
</g>
<path id="Vector_91" d="M28.9967 62.07C28.896 62.07 28.7953 62.065 28.6942 62.0543C27.8544 61.9656 27.1097 61.5108 26.4813 60.7029C25.6999 59.6983 25.4234 58.6382 25.659 57.5517C26.2097 55.0119 29.4623 53.3443 29.6007 53.2744C29.6992 53.2248 29.8083 53.2017 29.9185 53.2071C34.381 53.4331 35.3749 54.3844 35.5702 54.9315C35.5845 54.972 35.5952 55.0139 35.6017 55.0564C35.6137 55.1331 35.6235 55.2094 35.6316 55.2851C35.7866 56.7634 35.1488 58.2756 33.9671 59.2316C33.7816 59.3816 33.5827 59.5513 33.3729 59.7298C32.2022 60.7266 30.6242 62.0704 28.9967 62.0704V62.07ZM30.0273 54.5538C29.1527 55.033 27.25 56.3489 26.9271 57.846C26.7806 58.5244 26.9667 59.185 27.4957 59.8651C27.9041 60.3901 28.3394 60.6704 28.8271 60.7219C30.0176 60.8499 31.479 59.6049 32.5453 58.6971C32.764 58.511 32.9713 58.3345 33.1649 58.1778C33.9908 57.5095 34.4408 56.4661 34.3417 55.4498C34.1068 55.2727 33.1444 54.7293 30.0273 54.5538Z" fill="#000072"/>
<g id="Group_48" opacity="0.6">
<path id="Vector_92" d="M32.1974 54.4513C32.0807 54.5464 31.9427 54.6576 31.8169 54.7661C31.6899 54.8772 31.5609 54.9874 31.4361 55.1019C31.1856 55.3299 30.9368 55.563 30.7071 55.8124C30.4764 56.0606 30.258 56.3214 30.0615 56.5993C29.8639 56.8779 29.6787 57.1625 29.4945 57.4947C29.436 57.1167 29.5082 56.7252 29.6313 56.3653L29.7366 56.0997C29.7756 56.0133 29.8194 55.9303 29.8613 55.8449C29.9023 55.7589 29.9487 55.6772 29.9955 55.5958C30.0423 55.5144 30.0875 55.43 30.1401 55.3534C30.3383 55.0332 30.5651 54.7369 30.8058 54.4536C30.926 54.3117 31.0515 54.1751 31.1837 54.0448C31.3169 53.9115 31.4426 53.7866 31.5996 53.6584L32.1974 54.452V54.4513Z" fill="#000072"/>
</g>
</g>
<path id="Vector_93" d="M28.7521 49.0624C28.7485 49.0918 28.7385 49.1652 28.7342 49.2214C28.7287 49.2817 28.7245 49.3436 28.7216 49.4059C28.716 49.5305 28.7154 49.656 28.7183 49.7809C28.7222 50.0314 28.7515 50.2785 28.7973 50.5173C28.8853 50.9967 29.0682 51.4334 29.3311 51.8014C29.5936 52.1717 29.9562 52.4603 30.376 52.6864C30.7951 52.9127 31.287 53.044 31.7932 53.1501C32.7952 53.3507 33.8213 53.281 34.7108 52.8176C34.9321 52.7018 35.1452 52.5652 35.346 52.4071C35.5442 52.2457 35.7369 52.0739 35.9286 51.8918C36.3126 51.5258 36.6856 51.1287 37.1012 50.6783C37.118 51.3108 36.8942 51.9139 36.5612 52.4372C36.2242 52.964 35.7444 53.3922 35.2135 53.7341C34.6796 54.076 34.0737 54.3037 33.4544 54.4175C32.8335 54.5216 32.2055 54.516 31.5983 54.4353C31.4452 54.4182 31.2951 54.3921 31.146 54.3613L30.9218 54.3154L30.6944 54.2548C30.3909 54.1748 30.0894 54.0619 29.7944 53.9236C29.2054 53.6454 28.6475 53.2154 28.2371 52.6546C27.8187 52.0997 27.5682 51.4347 27.4518 50.7774C27.3953 50.4469 27.3703 50.1158 27.3739 49.7873C27.3732 49.6229 27.3865 49.4591 27.4025 49.2951C27.4109 49.213 27.421 49.131 27.4337 49.0476C27.4466 48.9602 27.4583 48.8906 27.4824 48.7781L28.7524 49.0627L28.7521 49.0624Z" fill="#000072"/>
<path id="Vector_94" d="M28.7656 49.2917C28.7575 49.4541 28.7458 49.57 28.7299 49.7049C28.713 49.8345 28.6968 49.9641 28.6711 50.0913C28.6227 50.3468 28.5622 50.5999 28.4849 50.8504C28.3244 51.3483 28.1152 51.8442 27.8039 52.2959C27.6493 52.5216 27.4751 52.7382 27.2769 52.9358C27.0778 53.133 26.8533 53.3058 26.6138 53.4545C26.1297 53.7428 25.5848 53.9202 25.0513 53.9574L24.8525 53.9718L24.6654 53.9741C24.5412 53.9775 24.4162 53.9752 24.2898 53.9675C24.0389 53.9591 23.7839 53.9279 23.5298 53.8817C23.2751 53.8342 23.021 53.7612 22.7731 53.6577C22.5249 53.5586 22.2832 53.4263 22.0613 53.2616C21.6191 52.9348 21.2467 52.4774 21.0791 51.9577C20.9147 51.4411 20.9225 50.8799 21.1665 50.4087C21.39 50.8789 21.5901 51.2646 21.8127 51.6011C21.9235 51.7682 22.0375 51.9222 22.1665 52.0592C22.2965 52.1951 22.444 52.309 22.6048 52.4021C22.7647 52.4962 22.9388 52.5688 23.124 52.619C23.2137 52.6492 23.3115 52.6639 23.4051 52.6857C23.5025 52.6987 23.598 52.7171 23.6975 52.7265C23.8957 52.7456 24.0971 52.7557 24.3034 52.7456C24.4058 52.7439 24.5088 52.7379 24.613 52.7265L24.7684 52.7128L24.9103 52.6904C25.2862 52.6314 25.628 52.5022 25.9263 52.3029C26.2197 52.097 26.4786 51.8318 26.6876 51.5057C26.8958 51.1812 27.0674 50.8102 27.1944 50.4148C27.2597 50.2179 27.3162 50.015 27.3611 49.8094C27.3835 49.7066 27.4059 49.6038 27.4248 49.501C27.443 49.4032 27.4602 49.285 27.4689 49.2123L28.7663 49.292L28.7656 49.2917Z" fill="#000072"/>
<path id="Vector_95" d="M53.715 27.4495C53.5981 27.9535 53.4047 28.4909 53.1188 29.0635C53.1188 29.0635 50.8104 25.7586 47.9854 23.7863L49.2151 19.7883C49.2151 19.7883 50.2061 19.2207 51.2084 18.906C51.8598 18.7034 52.5145 18.6046 52.906 18.8373C53.897 19.43 52.1051 22.318 52.1051 22.318C52.1051 22.318 54.4964 24.1429 53.715 27.4495Z" fill="#FA9B27"/>
<g id="Group_49" opacity="0.3">
<path id="Vector_96" d="M53.715 27.4495C53.5981 27.9535 53.4047 28.4909 53.1188 29.0635C53.1188 29.0635 50.8104 25.7586 47.9854 23.7863L49.2151 19.7883C49.2151 19.7883 50.2061 19.2208 51.2084 18.906C50.0582 20.6556 48.5182 24.4175 53.715 27.4495Z" fill="#000072"/>
</g>
<path id="Vector_97" d="M53.1187 29.5651C52.9627 29.5651 52.8152 29.4881 52.7233 29.3565C52.7005 29.324 50.4301 26.0988 47.7123 24.2029C47.5336 24.0784 47.4556 23.8473 47.5209 23.6354L48.7503 19.6367C48.788 19.5144 48.8696 19.4113 48.9787 19.349C49.4697 19.0684 51.9783 17.7046 53.1499 18.4038C53.4039 18.5551 53.5771 18.8006 53.6509 19.113C53.8685 20.0361 53.1391 21.5027 52.7311 22.2243C53.5466 23.0581 55.4291 25.5426 53.5524 29.2936C53.4748 29.4489 53.3243 29.5514 53.1554 29.5641C53.1434 29.5651 53.1313 29.5654 53.1193 29.5654L53.1187 29.5651ZM48.5583 23.5861C50.538 25.0461 52.2096 27.0524 53.0101 28.0905C54.2799 24.6854 51.9214 22.8046 51.8132 22.7209C51.6095 22.5632 51.5565 22.2689 51.694 22.0479C52.1888 21.2493 52.8292 19.8841 52.7031 19.3504C52.6888 19.2898 52.6722 19.2797 52.6612 19.2734C52.2187 19.0095 50.7781 19.5031 49.6198 20.1339L48.5583 23.5868V23.5861Z" fill="#000072"/>
<path id="Vector_98" d="M57.3458 61.2587L57.3442 61.257C57.2662 61.2152 54.7352 59.8339 51.8696 58.9885C50.9273 58.7105 49.9494 58.4895 49.0104 58.3924C49.0104 58.3924 47.5581 58.9248 46.468 57.8701C46.468 57.8701 43.0988 59.4171 42.4376 55.7455C42.4246 55.6718 42.4116 55.5948 42.3986 55.5161C41.8918 52.3351 42.1013 45.3151 50.6918 44.2821C51.6096 44.1716 52.5307 44.1432 53.4421 44.1951C56.5547 44.3675 59.5828 45.4524 62.1885 47.2873C65.2751 49.4622 68.503 53.05 69.9049 58.0325C71.9421 65.2751 57.3458 61.2587 57.3458 61.2587Z" fill="#FA9B27"/>
<path id="Vector_99" d="M56.3858 54.9653C55.6141 56.7383 53.9165 58.1312 51.8696 58.9884C50.9274 58.7105 49.9494 58.4895 49.0104 58.3924C49.0104 58.3924 47.5581 58.9248 46.4681 57.87C46.4681 57.87 43.0988 59.417 42.4377 55.7454C41.8869 52.6867 41.8886 45.3402 50.6918 44.2821C50.7009 44.2811 50.7103 44.2797 50.7194 44.2787C52.6205 44.0534 54.4981 44.934 55.5891 46.5543C56.866 48.4505 57.9492 51.3771 56.3861 54.9653H56.3858Z" fill="white"/>
<g id="Group_50" opacity="0.3">
<path id="Vector_100" d="M57.3442 61.257C57.2663 61.2151 54.7353 59.8339 51.8696 58.9884C50.9274 58.7105 49.9494 58.4895 49.0105 58.3924C49.0105 58.3924 47.5581 58.9248 46.4681 57.8701C46.4681 57.8701 43.0989 59.417 42.4377 55.7455C42.4247 55.6718 42.4117 55.5948 42.3987 55.5161C42.6774 55.706 43.0537 55.93 43.4696 56.0817C43.8945 56.2367 44.3403 55.9387 44.4053 55.4789C44.4517 55.1485 44.5726 54.7276 44.8468 54.244C44.8468 54.244 44.829 55.4327 45.3521 56.1861C45.6779 56.6569 46.2894 57.0082 47.0383 57.0042C47.7921 57.0001 48.3691 56.3207 48.3421 55.5446C48.3243 55.0306 48.3964 54.3917 48.7281 53.8C48.7281 53.8 48.9897 55.9163 50.2422 56.6881C50.2422 56.6881 55.4114 57.0648 53.4977 49.6731C53.4977 49.6731 57.8456 52.7145 55.4484 57.0802C54.952 57.9846 55.1502 59.1271 55.8968 59.8255C56.3198 60.2213 56.8124 60.7015 57.3449 61.2567L57.3442 61.257Z" fill="#000072"/>
</g>
<g id="Group_51" opacity="0.7">
<path id="Vector_101" d="M51.3416 46.2912C52.2594 46.1807 53.1805 46.1522 54.0919 46.2041C57.2045 46.3766 60.2326 47.4615 62.8383 49.2964C65.5555 51.211 68.3815 54.221 69.9755 58.3131C69.9543 58.221 69.9319 58.1282 69.9049 58.0325C68.503 53.05 65.2751 49.4622 62.1885 47.2873C59.5828 45.4524 56.5547 44.3675 53.4421 44.1951C52.5307 44.1432 51.6096 44.1716 50.6918 44.2821C42.1013 45.3151 41.8918 52.3351 42.3986 55.5161C42.4116 55.5948 42.4246 55.6718 42.4376 55.7455C42.5539 56.3911 42.755 56.8722 43.0055 57.2319C42.5614 53.9326 43.0062 47.2934 51.3416 46.2912Z" fill="white"/>
</g>
<path id="Vector_102" d="M57.3265 61.2613C56.5997 61.0591 55.8966 60.8327 55.1971 60.6064C54.4979 60.3807 53.8068 60.1466 53.1089 59.9437C52.7603 59.8436 52.4133 59.7398 52.063 59.6547C51.7157 59.5563 51.3648 59.483 51.0172 59.3989C50.3193 59.2459 49.6227 59.1294 48.9323 59.0393L49.2146 59.0045C49.1155 59.0383 49.0603 59.0527 48.9872 59.0711C48.9186 59.0882 48.8507 59.1026 48.7831 59.115C48.6477 59.1404 48.5115 59.1561 48.3747 59.1665C48.1005 59.1849 47.8205 59.1709 47.541 59.1193C47.2616 59.0708 46.9829 58.9763 46.7233 58.8411C46.4585 58.7131 46.2268 58.5266 46.0117 58.3314H46.0111L46.72 58.4563C46.6303 58.4968 46.5754 58.5183 46.5052 58.5454C46.4386 58.5708 46.3724 58.5943 46.3061 58.616C46.1735 58.6606 46.0393 58.6977 45.9032 58.7309C45.6309 58.7955 45.3509 58.84 45.0607 58.8538C44.4863 58.8819 43.843 58.7788 43.2822 58.4305C42.7172 58.0883 42.314 57.5335 42.0765 56.9833C41.8266 56.4305 41.7285 55.8499 41.6531 55.3399C41.5034 54.2892 41.4725 53.2257 41.57 52.1613C41.6177 51.6292 41.7029 51.0975 41.8322 50.5738C41.9615 50.0504 42.121 49.5304 42.3384 49.0308C42.7614 48.0286 43.3735 47.0941 44.1439 46.3259C44.2364 46.2262 44.3362 46.1344 44.4382 46.0453C44.5396 45.9556 44.6393 45.8635 44.7436 45.7778C44.959 45.6167 45.1653 45.4403 45.3928 45.3L45.7281 45.0793L46.0751 44.8831C46.3038 44.7455 46.5459 44.642 46.7834 44.5268C47.7425 44.0905 48.7477 43.8116 49.7543 43.6408C50.7599 43.4704 51.7771 43.3991 52.7925 43.4218C54.8231 43.466 56.8378 43.8883 58.7216 44.6407C59.6625 45.0207 60.5706 45.4818 61.4349 46.0155C61.8677 46.2804 62.2884 46.5707 62.6968 46.8677C63.102 47.1661 63.4993 47.4761 63.8876 47.7986C64.6631 48.4442 65.4055 49.136 66.0924 49.8857C66.7766 50.6377 67.3995 51.4527 67.9388 52.3227C68.2133 52.7539 68.4515 53.21 68.6763 53.6694L68.9944 54.3686C69.089 54.607 69.1731 54.8497 69.2621 55.0888C69.5965 56.0555 69.8138 57.0604 69.8937 58.0682C69.5409 57.122 69.1461 56.2169 68.6923 55.352L68.3371 54.7134L67.9573 54.0926C67.8322 53.8857 67.6847 53.6925 67.5518 53.4916C67.4225 53.2883 67.2734 53.0978 67.1298 52.905C65.9793 51.3637 64.6345 49.9781 63.1289 48.7907C62.7533 48.4934 62.369 48.2074 61.9765 47.9329C61.5843 47.6616 61.1909 47.4035 60.7818 47.1664C59.9676 46.6896 59.116 46.2827 58.2388 45.9526C56.4879 45.2836 54.6298 44.9236 52.7713 44.9106C51.8424 44.9032 50.9135 44.9846 50.0006 45.1406C49.0905 45.3 48.2045 45.5545 47.3861 45.9328C46.5706 46.3129 45.8132 46.8048 45.191 47.4373C44.561 48.0614 44.0613 48.8155 43.7059 49.6486C43.0005 51.3191 42.8319 53.2669 43.0655 55.135C43.1285 55.6132 43.2 56.0327 43.3582 56.394C43.5106 56.7563 43.7218 57.0386 43.997 57.2127C44.2712 57.3875 44.6241 57.4759 45.0175 57.4695C45.2134 57.4665 45.4165 57.4417 45.6192 57.4006C45.7206 57.3791 45.822 57.3547 45.9214 57.3249C45.9711 57.3102 46.0205 57.2944 46.0683 57.278C46.1124 57.2633 46.1716 57.2405 46.1937 57.2318C46.4406 57.1337 46.708 57.1889 46.8974 57.3523L46.9026 57.357H46.9029C47.0293 57.4662 47.1547 57.575 47.3029 57.643C47.4468 57.7183 47.6024 57.7732 47.7698 57.801C47.9358 57.8318 48.1109 57.8422 48.2883 57.8298C48.377 57.8228 48.4664 57.8128 48.5534 57.7963C48.5973 57.7886 48.6402 57.7796 48.6818 57.7689C48.7188 57.7605 48.7728 57.7438 48.7812 57.7414L48.8436 57.7233C48.9164 57.7023 48.9927 57.6976 49.0635 57.7069C49.8362 57.7886 50.5877 57.9567 51.3187 58.1687C52.0462 58.3927 52.7557 58.6572 53.4481 58.9559C54.1363 59.2646 54.815 59.5881 55.4664 59.9658C56.1162 60.3452 56.7488 60.76 57.3262 61.261L57.3265 61.2613Z" fill="#000072"/>
<path id="Vector_103" d="M46.0538 58.37C46.022 58.3405 46.0064 58.3231 45.9872 58.3027C45.9674 58.2822 45.9508 58.2631 45.9342 58.2441C45.9001 58.2059 45.868 58.167 45.8384 58.1285C45.776 58.0519 45.7211 57.9728 45.6649 57.8952C45.5564 57.7378 45.4586 57.575 45.3705 57.409C45.1931 57.0778 45.0505 56.7319 44.9543 56.3753C44.8569 56.0204 44.7828 55.6628 44.7682 55.3018C44.7435 54.9435 44.7808 54.5849 44.8468 54.2433C44.9053 54.4108 44.9485 54.5755 45.0057 54.7349C45.0667 54.8939 45.119 55.0507 45.1896 55.2007C45.3146 55.504 45.4677 55.7883 45.6395 56.0518C45.8117 56.3154 46.009 56.5561 46.2175 56.7751C46.3222 56.8843 46.4336 56.9847 46.5425 57.0822C46.599 57.128 46.6539 57.1759 46.7104 57.2168C46.7384 57.2389 46.7663 57.2583 46.793 57.277C46.8066 57.2867 46.8202 57.2968 46.8319 57.3038C46.8436 57.3112 46.8592 57.3219 46.8592 57.3189L46.0538 58.37Z" fill="#000072"/>
<path id="Vector_104" d="M48.7054 57.7753L48.772 57.7361C48.7993 57.7184 48.8266 57.7019 48.8536 57.6825C48.9081 57.646 48.9618 57.6062 49.0121 57.5647C49.1135 57.4823 49.2061 57.3939 49.2815 57.3035C49.3552 57.2127 49.4111 57.122 49.4504 57.0376C49.4852 56.9529 49.4985 56.8762 49.5053 56.8002L49.5258 56.687C49.5911 56.3264 49.928 56.0887 50.2779 56.156C50.3579 56.1714 50.4336 56.2028 50.4989 56.244C50.5236 56.2598 50.5785 56.2919 50.621 56.3157L50.762 56.3907C50.8576 56.4399 50.956 56.4841 51.0541 56.529C51.251 56.6157 51.4525 56.688 51.6526 56.7443C52.0529 56.8591 52.4535 56.8973 52.8044 56.8313C53.155 56.7637 53.4587 56.5913 53.7089 56.2966C53.7749 56.2283 53.8282 56.1416 53.8883 56.0622C53.938 55.9715 53.9987 55.8904 54.0419 55.791L54.1128 55.6473C54.1342 55.5978 54.1511 55.5445 54.1713 55.4933L54.2905 55.1833C54.4153 54.7587 54.5095 54.3137 54.5085 53.8539C54.527 53.6249 54.5017 53.3935 54.4916 53.1605C54.4812 53.0443 54.4607 52.9287 54.4461 52.8119L54.4218 52.6371L54.3847 52.4637C54.296 51.9979 54.1407 51.5445 53.988 51.0844C53.836 50.622 53.667 50.1609 53.4974 49.6721C53.9029 49.9892 54.2125 50.403 54.4838 50.839C54.7496 51.28 54.951 51.7621 55.1037 52.2651C55.4264 53.2609 55.5235 54.3853 55.272 55.4692C55.1323 56.0003 54.9562 56.5454 54.5832 57.0316C54.4036 57.273 54.1833 57.5014 53.9201 57.6758C53.6595 57.852 53.3661 57.9795 53.0685 58.0539C52.4688 58.2049 51.8765 58.1493 51.3394 58.0204C51.0694 57.9541 50.8105 57.8647 50.5587 57.7615C50.4332 57.709 50.3098 57.652 50.1879 57.5901L50.0053 57.4937C49.9413 57.4578 49.8903 57.4294 49.8114 57.3798L50.8049 56.824C50.7952 57.0909 50.7364 57.3517 50.6379 57.5814C50.5372 57.8074 50.4082 58.0036 50.2679 58.1744C50.1262 58.3435 49.9735 58.4878 49.8143 58.6171C49.7347 58.682 49.6535 58.7423 49.569 58.7992C49.5274 58.8284 49.4835 58.8555 49.4403 58.8829C49.3926 58.9117 49.3572 58.9338 49.2899 58.9697L48.7051 57.7736L48.7054 57.7753Z" fill="#000072"/>
<path id="Vector_105" d="M49.7748 57.3554C49.7362 57.3239 49.7261 57.3119 49.7047 57.2918C49.6849 57.273 49.6709 57.2573 49.654 57.2399C49.6202 57.2057 49.5929 57.1719 49.5643 57.1378C49.5084 57.0691 49.4564 57.0015 49.4087 56.9322C49.3106 56.7952 49.2277 56.6529 49.1533 56.5083C49.0045 56.219 48.8947 55.9189 48.8118 55.6172C48.7738 55.4652 48.7378 55.3142 48.715 55.1619C48.6854 55.0112 48.6708 54.8582 48.6595 54.7065C48.6461 54.5555 48.6556 54.4014 48.6598 54.2511C48.6728 54.0994 48.6971 53.9477 48.7283 53.7994C48.8076 53.932 48.8736 54.0632 48.9402 54.1915C49.012 54.318 49.0695 54.446 49.1387 54.5678C49.2673 54.8143 49.4038 55.0483 49.5536 55.2657C49.706 55.481 49.8678 55.6809 50.04 55.8573C50.1254 55.9457 50.2141 56.0284 50.3018 56.1031C50.3454 56.1409 50.3909 56.1754 50.4341 56.2066L50.4968 56.2498C50.5062 56.2555 50.5176 56.2645 50.5247 56.2675C50.5302 56.2699 50.5465 56.2809 50.5358 56.2705L49.7742 57.3557L49.7748 57.3554Z" fill="#000072"/>
<g id="Group_52">
<g id="Group_53">
<path id="Vector_106" d="M22.0475 45.5865C23.4982 45.5712 24.6589 43.967 24.6399 42.0035C24.6209 40.04 23.4294 38.4608 21.9788 38.4761C20.5281 38.4915 19.3674 40.0957 19.3864 42.0592C19.4054 44.0226 20.5969 45.6019 22.0475 45.5865Z" fill="#000072"/>
<path id="Vector_107" d="M22.6601 42.4091C23.0839 42.4047 23.4229 41.9362 23.4173 41.3628C23.4116 40.7894 23.0635 40.3281 22.6397 40.3325C22.2159 40.3369 21.8769 40.8054 21.8825 41.3788C21.8881 41.9522 22.2363 42.4135 22.6601 42.4091Z" fill="white"/>
</g>
<path id="Vector_108" d="M42.0033 39.6405C41.4893 39.8036 40.9678 39.9951 40.485 40.2148C39.9989 40.4361 39.5398 40.6909 39.1132 40.9789C38.8955 41.1175 38.699 41.2813 38.4962 41.435L38.2129 41.6898C38.1671 41.7336 38.1161 41.7715 38.0722 41.8173L37.9416 41.9553C37.5771 42.3082 37.2902 42.7308 37.0079 43.1584L36.089 42.1234C36.1361 42.1016 36.166 42.0902 36.1982 42.0772C36.2313 42.0635 36.2625 42.0517 36.2927 42.041C36.3545 42.0193 36.4162 41.9975 36.4766 41.9801C36.5982 41.9409 36.719 41.9108 36.8399 41.8803C37.0816 41.8217 37.3259 41.7849 37.5703 41.7581C38.0592 41.7068 38.5534 41.7223 39.0353 41.8053C39.5158 41.89 39.9875 42.027 40.418 42.2486C40.857 42.4472 41.2462 42.7385 41.5984 43.0486C41.7014 43.1393 41.7138 43.2987 41.6257 43.4048C41.5604 43.4839 41.4581 43.511 41.3674 43.4825L41.3395 43.4735C41.1309 43.4075 40.9376 43.3215 40.7355 43.2629C40.5318 43.2083 40.3368 43.1427 40.1338 43.1082C39.7338 43.0218 39.3319 42.9856 38.9352 42.9876C38.5388 42.9839 38.1447 43.0288 37.761 43.1098C37.6648 43.1286 37.5703 43.1554 37.4754 43.1771L37.1953 43.2589C37.104 43.2897 37.0121 43.3191 36.925 43.3546C36.8798 43.371 36.8386 43.3894 36.797 43.4075C36.7756 43.4162 36.7551 43.4249 36.7375 43.4333L36.6943 43.4537L36.6774 43.4618C36.3207 43.6289 35.8999 43.4665 35.7375 43.0988C35.6377 42.8724 35.6611 42.6176 35.7755 42.4187C36.0975 41.8672 36.4562 41.3235 36.9227 40.8831C37.1381 40.6447 37.3997 40.4606 37.644 40.2593C37.9085 40.0869 38.1661 39.9037 38.4491 39.7711C39.0034 39.4852 39.5902 39.2833 40.1864 39.1744C40.7862 39.0693 41.3807 39.0371 41.9938 39.1379C42.1283 39.16 42.2203 39.2906 42.1985 39.4292C42.1832 39.528 42.1147 39.6044 42.0276 39.6322L42.0029 39.6399L42.0033 39.6405Z" fill="#000072"/>
</g>
<g id="Group_54">
<path id="Vector_109" d="M27.2202 49.8211C26.1233 49.5643 24.4527 48.844 24.6713 46.8457C24.7051 46.5366 24.8981 46.2698 25.1723 46.1395C26.1133 45.6922 28.5309 44.8594 31.2061 46.4402C31.4924 46.6093 31.6571 46.9358 31.6356 47.275C31.5827 48.103 31.1863 49.574 29.0845 49.8965C28.4649 49.9915 27.8314 49.9638 27.2205 49.8208L27.2202 49.8211Z" fill="#000072"/>
<path id="Vector_110" d="M27.7484 46.8704C28.4369 46.8704 28.995 46.7472 28.995 46.5952C28.995 46.4432 28.4369 46.3199 27.7484 46.3199C27.0599 46.3199 26.5017 46.4432 26.5017 46.5952C26.5017 46.7472 27.0599 46.8704 27.7484 46.8704Z" fill="white"/>
</g>
</g>
</g>
</g>
<defs>
<clipPath id="clip0_3_123">
<rect width="100" height="100" fill="white"/>
</clipPath>
</defs>
</svg>
